%TF.GenerationSoftware,KiCad,Pcbnew,9.0.6*%
%TF.CreationDate,2026-01-13T18:35:44+05:30*%
%TF.ProjectId,Pen_Plotter,50656e5f-506c-46f7-9474-65722e6b6963,rev?*%
%TF.SameCoordinates,Original*%
%TF.FileFunction,Soldermask,Top*%
%TF.FilePolarity,Negative*%
%FSLAX46Y46*%
G04 Gerber Fmt 4.6, Leading zero omitted, Abs format (unit mm)*
G04 Created by KiCad (PCBNEW 9.0.6) date 2026-01-13 18:35:44*
%MOMM*%
%LPD*%
G01*
G04 APERTURE LIST*
G04 Aperture macros list*
%AMRoundRect*
0 Rectangle with rounded corners*
0 $1 Rounding radius*
0 $2 $3 $4 $5 $6 $7 $8 $9 X,Y pos of 4 corners*
0 Add a 4 corners polygon primitive as box body*
4,1,4,$2,$3,$4,$5,$6,$7,$8,$9,$2,$3,0*
0 Add four circle primitives for the rounded corners*
1,1,$1+$1,$2,$3*
1,1,$1+$1,$4,$5*
1,1,$1+$1,$6,$7*
1,1,$1+$1,$8,$9*
0 Add four rect primitives between the rounded corners*
20,1,$1+$1,$2,$3,$4,$5,0*
20,1,$1+$1,$4,$5,$6,$7,0*
20,1,$1+$1,$6,$7,$8,$9,0*
20,1,$1+$1,$8,$9,$2,$3,0*%
G04 Aperture macros list end*
%ADD10C,0.010000*%
%ADD11C,3.300000*%
%ADD12R,1.500000X2.000000*%
%ADD13R,3.800000X2.000000*%
%ADD14R,1.700000X1.700000*%
%ADD15C,2.100000*%
%ADD16R,1.600000X1.200000*%
%ADD17R,1.200000X1.600000*%
%ADD18RoundRect,0.102000X-1.016000X0.330200X-1.016000X-0.330200X1.016000X-0.330200X1.016000X0.330200X0*%
%ADD19R,1.700000X1.400000*%
%ADD20R,1.000000X3.000000*%
%ADD21RoundRect,0.102000X-0.300000X-0.600000X0.300000X-0.600000X0.300000X0.600000X-0.300000X0.600000X0*%
%ADD22R,1.500000X2.500000*%
%ADD23R,1.500000X0.800000*%
%ADD24R,0.800000X1.500000*%
G04 APERTURE END LIST*
D10*
%TO.C,J1*%
X69974000Y-120231000D02*
X70008000Y-120234000D01*
X70042000Y-120238000D01*
X70075000Y-120244000D01*
X70108000Y-120252000D01*
X70141000Y-120262000D01*
X70173000Y-120273000D01*
X70204000Y-120286000D01*
X70235000Y-120301000D01*
X70265000Y-120317000D01*
X70294000Y-120335000D01*
X70322000Y-120354000D01*
X70349000Y-120375000D01*
X70375000Y-120397000D01*
X70400000Y-120420000D01*
X70423000Y-120445000D01*
X70445000Y-120471000D01*
X70466000Y-120498000D01*
X70485000Y-120526000D01*
X70503000Y-120555000D01*
X70519000Y-120585000D01*
X70534000Y-120616000D01*
X70547000Y-120647000D01*
X70558000Y-120679000D01*
X70568000Y-120712000D01*
X70576000Y-120745000D01*
X70582000Y-120778000D01*
X70586000Y-120812000D01*
X70589000Y-120846000D01*
X70590000Y-120880000D01*
X70590000Y-121480000D01*
X70589000Y-121514000D01*
X70586000Y-121548000D01*
X70582000Y-121582000D01*
X70576000Y-121615000D01*
X70568000Y-121648000D01*
X70558000Y-121681000D01*
X70547000Y-121713000D01*
X70534000Y-121744000D01*
X70519000Y-121775000D01*
X70503000Y-121805000D01*
X70485000Y-121834000D01*
X70466000Y-121862000D01*
X70445000Y-121889000D01*
X70423000Y-121915000D01*
X70400000Y-121940000D01*
X70375000Y-121963000D01*
X70349000Y-121985000D01*
X70322000Y-122006000D01*
X70294000Y-122025000D01*
X70265000Y-122043000D01*
X70235000Y-122059000D01*
X70204000Y-122074000D01*
X70173000Y-122087000D01*
X70141000Y-122098000D01*
X70108000Y-122108000D01*
X70075000Y-122116000D01*
X70042000Y-122122000D01*
X70008000Y-122126000D01*
X69974000Y-122129000D01*
X69940000Y-122130000D01*
X69906000Y-122129000D01*
X69872000Y-122126000D01*
X69838000Y-122122000D01*
X69805000Y-122116000D01*
X69772000Y-122108000D01*
X69739000Y-122098000D01*
X69707000Y-122087000D01*
X69676000Y-122074000D01*
X69645000Y-122059000D01*
X69615000Y-122043000D01*
X69586000Y-122025000D01*
X69558000Y-122006000D01*
X69531000Y-121985000D01*
X69505000Y-121963000D01*
X69480000Y-121940000D01*
X69457000Y-121915000D01*
X69435000Y-121889000D01*
X69414000Y-121862000D01*
X69395000Y-121834000D01*
X69377000Y-121805000D01*
X69361000Y-121775000D01*
X69346000Y-121744000D01*
X69333000Y-121713000D01*
X69322000Y-121681000D01*
X69312000Y-121648000D01*
X69304000Y-121615000D01*
X69298000Y-121582000D01*
X69294000Y-121548000D01*
X69291000Y-121514000D01*
X69290000Y-121480000D01*
X69290000Y-120880000D01*
X69291000Y-120846000D01*
X69294000Y-120812000D01*
X69298000Y-120778000D01*
X69304000Y-120745000D01*
X69312000Y-120712000D01*
X69322000Y-120679000D01*
X69333000Y-120647000D01*
X69346000Y-120616000D01*
X69361000Y-120585000D01*
X69377000Y-120555000D01*
X69395000Y-120526000D01*
X69414000Y-120498000D01*
X69435000Y-120471000D01*
X69457000Y-120445000D01*
X69480000Y-120420000D01*
X69505000Y-120397000D01*
X69531000Y-120375000D01*
X69558000Y-120354000D01*
X69586000Y-120335000D01*
X69615000Y-120317000D01*
X69645000Y-120301000D01*
X69676000Y-120286000D01*
X69707000Y-120273000D01*
X69739000Y-120262000D01*
X69772000Y-120252000D01*
X69805000Y-120244000D01*
X69838000Y-120238000D01*
X69872000Y-120234000D01*
X69906000Y-120231000D01*
X69940000Y-120230000D01*
X69974000Y-120231000D01*
G36*
X69974000Y-120231000D02*
G01*
X70008000Y-120234000D01*
X70042000Y-120238000D01*
X70075000Y-120244000D01*
X70108000Y-120252000D01*
X70141000Y-120262000D01*
X70173000Y-120273000D01*
X70204000Y-120286000D01*
X70235000Y-120301000D01*
X70265000Y-120317000D01*
X70294000Y-120335000D01*
X70322000Y-120354000D01*
X70349000Y-120375000D01*
X70375000Y-120397000D01*
X70400000Y-120420000D01*
X70423000Y-120445000D01*
X70445000Y-120471000D01*
X70466000Y-120498000D01*
X70485000Y-120526000D01*
X70503000Y-120555000D01*
X70519000Y-120585000D01*
X70534000Y-120616000D01*
X70547000Y-120647000D01*
X70558000Y-120679000D01*
X70568000Y-120712000D01*
X70576000Y-120745000D01*
X70582000Y-120778000D01*
X70586000Y-120812000D01*
X70589000Y-120846000D01*
X70590000Y-120880000D01*
X70590000Y-121480000D01*
X70589000Y-121514000D01*
X70586000Y-121548000D01*
X70582000Y-121582000D01*
X70576000Y-121615000D01*
X70568000Y-121648000D01*
X70558000Y-121681000D01*
X70547000Y-121713000D01*
X70534000Y-121744000D01*
X70519000Y-121775000D01*
X70503000Y-121805000D01*
X70485000Y-121834000D01*
X70466000Y-121862000D01*
X70445000Y-121889000D01*
X70423000Y-121915000D01*
X70400000Y-121940000D01*
X70375000Y-121963000D01*
X70349000Y-121985000D01*
X70322000Y-122006000D01*
X70294000Y-122025000D01*
X70265000Y-122043000D01*
X70235000Y-122059000D01*
X70204000Y-122074000D01*
X70173000Y-122087000D01*
X70141000Y-122098000D01*
X70108000Y-122108000D01*
X70075000Y-122116000D01*
X70042000Y-122122000D01*
X70008000Y-122126000D01*
X69974000Y-122129000D01*
X69940000Y-122130000D01*
X69906000Y-122129000D01*
X69872000Y-122126000D01*
X69838000Y-122122000D01*
X69805000Y-122116000D01*
X69772000Y-122108000D01*
X69739000Y-122098000D01*
X69707000Y-122087000D01*
X69676000Y-122074000D01*
X69645000Y-122059000D01*
X69615000Y-122043000D01*
X69586000Y-122025000D01*
X69558000Y-122006000D01*
X69531000Y-121985000D01*
X69505000Y-121963000D01*
X69480000Y-121940000D01*
X69457000Y-121915000D01*
X69435000Y-121889000D01*
X69414000Y-121862000D01*
X69395000Y-121834000D01*
X69377000Y-121805000D01*
X69361000Y-121775000D01*
X69346000Y-121744000D01*
X69333000Y-121713000D01*
X69322000Y-121681000D01*
X69312000Y-121648000D01*
X69304000Y-121615000D01*
X69298000Y-121582000D01*
X69294000Y-121548000D01*
X69291000Y-121514000D01*
X69290000Y-121480000D01*
X69290000Y-120880000D01*
X69291000Y-120846000D01*
X69294000Y-120812000D01*
X69298000Y-120778000D01*
X69304000Y-120745000D01*
X69312000Y-120712000D01*
X69322000Y-120679000D01*
X69333000Y-120647000D01*
X69346000Y-120616000D01*
X69361000Y-120585000D01*
X69377000Y-120555000D01*
X69395000Y-120526000D01*
X69414000Y-120498000D01*
X69435000Y-120471000D01*
X69457000Y-120445000D01*
X69480000Y-120420000D01*
X69505000Y-120397000D01*
X69531000Y-120375000D01*
X69558000Y-120354000D01*
X69586000Y-120335000D01*
X69615000Y-120317000D01*
X69645000Y-120301000D01*
X69676000Y-120286000D01*
X69707000Y-120273000D01*
X69739000Y-120262000D01*
X69772000Y-120252000D01*
X69805000Y-120244000D01*
X69838000Y-120238000D01*
X69872000Y-120234000D01*
X69906000Y-120231000D01*
X69940000Y-120230000D01*
X69974000Y-120231000D01*
G37*
X69974000Y-124031000D02*
X70008000Y-124034000D01*
X70042000Y-124038000D01*
X70075000Y-124044000D01*
X70108000Y-124052000D01*
X70141000Y-124062000D01*
X70173000Y-124073000D01*
X70204000Y-124086000D01*
X70235000Y-124101000D01*
X70265000Y-124117000D01*
X70294000Y-124135000D01*
X70322000Y-124154000D01*
X70349000Y-124175000D01*
X70375000Y-124197000D01*
X70400000Y-124220000D01*
X70423000Y-124245000D01*
X70445000Y-124271000D01*
X70466000Y-124298000D01*
X70485000Y-124326000D01*
X70503000Y-124355000D01*
X70519000Y-124385000D01*
X70534000Y-124416000D01*
X70547000Y-124447000D01*
X70558000Y-124479000D01*
X70568000Y-124512000D01*
X70576000Y-124545000D01*
X70582000Y-124578000D01*
X70586000Y-124612000D01*
X70589000Y-124646000D01*
X70590000Y-124680000D01*
X70590000Y-125280000D01*
X70589000Y-125314000D01*
X70586000Y-125348000D01*
X70582000Y-125382000D01*
X70576000Y-125415000D01*
X70568000Y-125448000D01*
X70558000Y-125481000D01*
X70547000Y-125513000D01*
X70534000Y-125544000D01*
X70519000Y-125575000D01*
X70503000Y-125605000D01*
X70485000Y-125634000D01*
X70466000Y-125662000D01*
X70445000Y-125689000D01*
X70423000Y-125715000D01*
X70400000Y-125740000D01*
X70375000Y-125763000D01*
X70349000Y-125785000D01*
X70322000Y-125806000D01*
X70294000Y-125825000D01*
X70265000Y-125843000D01*
X70235000Y-125859000D01*
X70204000Y-125874000D01*
X70173000Y-125887000D01*
X70141000Y-125898000D01*
X70108000Y-125908000D01*
X70075000Y-125916000D01*
X70042000Y-125922000D01*
X70008000Y-125926000D01*
X69974000Y-125929000D01*
X69940000Y-125930000D01*
X69906000Y-125929000D01*
X69872000Y-125926000D01*
X69838000Y-125922000D01*
X69805000Y-125916000D01*
X69772000Y-125908000D01*
X69739000Y-125898000D01*
X69707000Y-125887000D01*
X69676000Y-125874000D01*
X69645000Y-125859000D01*
X69615000Y-125843000D01*
X69586000Y-125825000D01*
X69558000Y-125806000D01*
X69531000Y-125785000D01*
X69505000Y-125763000D01*
X69480000Y-125740000D01*
X69457000Y-125715000D01*
X69435000Y-125689000D01*
X69414000Y-125662000D01*
X69395000Y-125634000D01*
X69377000Y-125605000D01*
X69361000Y-125575000D01*
X69346000Y-125544000D01*
X69333000Y-125513000D01*
X69322000Y-125481000D01*
X69312000Y-125448000D01*
X69304000Y-125415000D01*
X69298000Y-125382000D01*
X69294000Y-125348000D01*
X69291000Y-125314000D01*
X69290000Y-125280000D01*
X69290000Y-124680000D01*
X69291000Y-124646000D01*
X69294000Y-124612000D01*
X69298000Y-124578000D01*
X69304000Y-124545000D01*
X69312000Y-124512000D01*
X69322000Y-124479000D01*
X69333000Y-124447000D01*
X69346000Y-124416000D01*
X69361000Y-124385000D01*
X69377000Y-124355000D01*
X69395000Y-124326000D01*
X69414000Y-124298000D01*
X69435000Y-124271000D01*
X69457000Y-124245000D01*
X69480000Y-124220000D01*
X69505000Y-124197000D01*
X69531000Y-124175000D01*
X69558000Y-124154000D01*
X69586000Y-124135000D01*
X69615000Y-124117000D01*
X69645000Y-124101000D01*
X69676000Y-124086000D01*
X69707000Y-124073000D01*
X69739000Y-124062000D01*
X69772000Y-124052000D01*
X69805000Y-124044000D01*
X69838000Y-124038000D01*
X69872000Y-124034000D01*
X69906000Y-124031000D01*
X69940000Y-124030000D01*
X69974000Y-124031000D01*
G36*
X69974000Y-124031000D02*
G01*
X70008000Y-124034000D01*
X70042000Y-124038000D01*
X70075000Y-124044000D01*
X70108000Y-124052000D01*
X70141000Y-124062000D01*
X70173000Y-124073000D01*
X70204000Y-124086000D01*
X70235000Y-124101000D01*
X70265000Y-124117000D01*
X70294000Y-124135000D01*
X70322000Y-124154000D01*
X70349000Y-124175000D01*
X70375000Y-124197000D01*
X70400000Y-124220000D01*
X70423000Y-124245000D01*
X70445000Y-124271000D01*
X70466000Y-124298000D01*
X70485000Y-124326000D01*
X70503000Y-124355000D01*
X70519000Y-124385000D01*
X70534000Y-124416000D01*
X70547000Y-124447000D01*
X70558000Y-124479000D01*
X70568000Y-124512000D01*
X70576000Y-124545000D01*
X70582000Y-124578000D01*
X70586000Y-124612000D01*
X70589000Y-124646000D01*
X70590000Y-124680000D01*
X70590000Y-125280000D01*
X70589000Y-125314000D01*
X70586000Y-125348000D01*
X70582000Y-125382000D01*
X70576000Y-125415000D01*
X70568000Y-125448000D01*
X70558000Y-125481000D01*
X70547000Y-125513000D01*
X70534000Y-125544000D01*
X70519000Y-125575000D01*
X70503000Y-125605000D01*
X70485000Y-125634000D01*
X70466000Y-125662000D01*
X70445000Y-125689000D01*
X70423000Y-125715000D01*
X70400000Y-125740000D01*
X70375000Y-125763000D01*
X70349000Y-125785000D01*
X70322000Y-125806000D01*
X70294000Y-125825000D01*
X70265000Y-125843000D01*
X70235000Y-125859000D01*
X70204000Y-125874000D01*
X70173000Y-125887000D01*
X70141000Y-125898000D01*
X70108000Y-125908000D01*
X70075000Y-125916000D01*
X70042000Y-125922000D01*
X70008000Y-125926000D01*
X69974000Y-125929000D01*
X69940000Y-125930000D01*
X69906000Y-125929000D01*
X69872000Y-125926000D01*
X69838000Y-125922000D01*
X69805000Y-125916000D01*
X69772000Y-125908000D01*
X69739000Y-125898000D01*
X69707000Y-125887000D01*
X69676000Y-125874000D01*
X69645000Y-125859000D01*
X69615000Y-125843000D01*
X69586000Y-125825000D01*
X69558000Y-125806000D01*
X69531000Y-125785000D01*
X69505000Y-125763000D01*
X69480000Y-125740000D01*
X69457000Y-125715000D01*
X69435000Y-125689000D01*
X69414000Y-125662000D01*
X69395000Y-125634000D01*
X69377000Y-125605000D01*
X69361000Y-125575000D01*
X69346000Y-125544000D01*
X69333000Y-125513000D01*
X69322000Y-125481000D01*
X69312000Y-125448000D01*
X69304000Y-125415000D01*
X69298000Y-125382000D01*
X69294000Y-125348000D01*
X69291000Y-125314000D01*
X69290000Y-125280000D01*
X69290000Y-124680000D01*
X69291000Y-124646000D01*
X69294000Y-124612000D01*
X69298000Y-124578000D01*
X69304000Y-124545000D01*
X69312000Y-124512000D01*
X69322000Y-124479000D01*
X69333000Y-124447000D01*
X69346000Y-124416000D01*
X69361000Y-124385000D01*
X69377000Y-124355000D01*
X69395000Y-124326000D01*
X69414000Y-124298000D01*
X69435000Y-124271000D01*
X69457000Y-124245000D01*
X69480000Y-124220000D01*
X69505000Y-124197000D01*
X69531000Y-124175000D01*
X69558000Y-124154000D01*
X69586000Y-124135000D01*
X69615000Y-124117000D01*
X69645000Y-124101000D01*
X69676000Y-124086000D01*
X69707000Y-124073000D01*
X69739000Y-124062000D01*
X69772000Y-124052000D01*
X69805000Y-124044000D01*
X69838000Y-124038000D01*
X69872000Y-124034000D01*
X69906000Y-124031000D01*
X69940000Y-124030000D01*
X69974000Y-124031000D01*
G37*
X78614000Y-120231000D02*
X78648000Y-120234000D01*
X78682000Y-120238000D01*
X78715000Y-120244000D01*
X78748000Y-120252000D01*
X78781000Y-120262000D01*
X78813000Y-120273000D01*
X78844000Y-120286000D01*
X78875000Y-120301000D01*
X78905000Y-120317000D01*
X78934000Y-120335000D01*
X78962000Y-120354000D01*
X78989000Y-120375000D01*
X79015000Y-120397000D01*
X79040000Y-120420000D01*
X79063000Y-120445000D01*
X79085000Y-120471000D01*
X79106000Y-120498000D01*
X79125000Y-120526000D01*
X79143000Y-120555000D01*
X79159000Y-120585000D01*
X79174000Y-120616000D01*
X79187000Y-120647000D01*
X79198000Y-120679000D01*
X79208000Y-120712000D01*
X79216000Y-120745000D01*
X79222000Y-120778000D01*
X79226000Y-120812000D01*
X79229000Y-120846000D01*
X79230000Y-120880000D01*
X79230000Y-121480000D01*
X79229000Y-121514000D01*
X79226000Y-121548000D01*
X79222000Y-121582000D01*
X79216000Y-121615000D01*
X79208000Y-121648000D01*
X79198000Y-121681000D01*
X79187000Y-121713000D01*
X79174000Y-121744000D01*
X79159000Y-121775000D01*
X79143000Y-121805000D01*
X79125000Y-121834000D01*
X79106000Y-121862000D01*
X79085000Y-121889000D01*
X79063000Y-121915000D01*
X79040000Y-121940000D01*
X79015000Y-121963000D01*
X78989000Y-121985000D01*
X78962000Y-122006000D01*
X78934000Y-122025000D01*
X78905000Y-122043000D01*
X78875000Y-122059000D01*
X78844000Y-122074000D01*
X78813000Y-122087000D01*
X78781000Y-122098000D01*
X78748000Y-122108000D01*
X78715000Y-122116000D01*
X78682000Y-122122000D01*
X78648000Y-122126000D01*
X78614000Y-122129000D01*
X78580000Y-122130000D01*
X78546000Y-122129000D01*
X78512000Y-122126000D01*
X78478000Y-122122000D01*
X78445000Y-122116000D01*
X78412000Y-122108000D01*
X78379000Y-122098000D01*
X78347000Y-122087000D01*
X78316000Y-122074000D01*
X78285000Y-122059000D01*
X78255000Y-122043000D01*
X78226000Y-122025000D01*
X78198000Y-122006000D01*
X78171000Y-121985000D01*
X78145000Y-121963000D01*
X78120000Y-121940000D01*
X78097000Y-121915000D01*
X78075000Y-121889000D01*
X78054000Y-121862000D01*
X78035000Y-121834000D01*
X78017000Y-121805000D01*
X78001000Y-121775000D01*
X77986000Y-121744000D01*
X77973000Y-121713000D01*
X77962000Y-121681000D01*
X77952000Y-121648000D01*
X77944000Y-121615000D01*
X77938000Y-121582000D01*
X77934000Y-121548000D01*
X77931000Y-121514000D01*
X77930000Y-121480000D01*
X77930000Y-120880000D01*
X77931000Y-120846000D01*
X77934000Y-120812000D01*
X77938000Y-120778000D01*
X77944000Y-120745000D01*
X77952000Y-120712000D01*
X77962000Y-120679000D01*
X77973000Y-120647000D01*
X77986000Y-120616000D01*
X78001000Y-120585000D01*
X78017000Y-120555000D01*
X78035000Y-120526000D01*
X78054000Y-120498000D01*
X78075000Y-120471000D01*
X78097000Y-120445000D01*
X78120000Y-120420000D01*
X78145000Y-120397000D01*
X78171000Y-120375000D01*
X78198000Y-120354000D01*
X78226000Y-120335000D01*
X78255000Y-120317000D01*
X78285000Y-120301000D01*
X78316000Y-120286000D01*
X78347000Y-120273000D01*
X78379000Y-120262000D01*
X78412000Y-120252000D01*
X78445000Y-120244000D01*
X78478000Y-120238000D01*
X78512000Y-120234000D01*
X78546000Y-120231000D01*
X78580000Y-120230000D01*
X78614000Y-120231000D01*
G36*
X78614000Y-120231000D02*
G01*
X78648000Y-120234000D01*
X78682000Y-120238000D01*
X78715000Y-120244000D01*
X78748000Y-120252000D01*
X78781000Y-120262000D01*
X78813000Y-120273000D01*
X78844000Y-120286000D01*
X78875000Y-120301000D01*
X78905000Y-120317000D01*
X78934000Y-120335000D01*
X78962000Y-120354000D01*
X78989000Y-120375000D01*
X79015000Y-120397000D01*
X79040000Y-120420000D01*
X79063000Y-120445000D01*
X79085000Y-120471000D01*
X79106000Y-120498000D01*
X79125000Y-120526000D01*
X79143000Y-120555000D01*
X79159000Y-120585000D01*
X79174000Y-120616000D01*
X79187000Y-120647000D01*
X79198000Y-120679000D01*
X79208000Y-120712000D01*
X79216000Y-120745000D01*
X79222000Y-120778000D01*
X79226000Y-120812000D01*
X79229000Y-120846000D01*
X79230000Y-120880000D01*
X79230000Y-121480000D01*
X79229000Y-121514000D01*
X79226000Y-121548000D01*
X79222000Y-121582000D01*
X79216000Y-121615000D01*
X79208000Y-121648000D01*
X79198000Y-121681000D01*
X79187000Y-121713000D01*
X79174000Y-121744000D01*
X79159000Y-121775000D01*
X79143000Y-121805000D01*
X79125000Y-121834000D01*
X79106000Y-121862000D01*
X79085000Y-121889000D01*
X79063000Y-121915000D01*
X79040000Y-121940000D01*
X79015000Y-121963000D01*
X78989000Y-121985000D01*
X78962000Y-122006000D01*
X78934000Y-122025000D01*
X78905000Y-122043000D01*
X78875000Y-122059000D01*
X78844000Y-122074000D01*
X78813000Y-122087000D01*
X78781000Y-122098000D01*
X78748000Y-122108000D01*
X78715000Y-122116000D01*
X78682000Y-122122000D01*
X78648000Y-122126000D01*
X78614000Y-122129000D01*
X78580000Y-122130000D01*
X78546000Y-122129000D01*
X78512000Y-122126000D01*
X78478000Y-122122000D01*
X78445000Y-122116000D01*
X78412000Y-122108000D01*
X78379000Y-122098000D01*
X78347000Y-122087000D01*
X78316000Y-122074000D01*
X78285000Y-122059000D01*
X78255000Y-122043000D01*
X78226000Y-122025000D01*
X78198000Y-122006000D01*
X78171000Y-121985000D01*
X78145000Y-121963000D01*
X78120000Y-121940000D01*
X78097000Y-121915000D01*
X78075000Y-121889000D01*
X78054000Y-121862000D01*
X78035000Y-121834000D01*
X78017000Y-121805000D01*
X78001000Y-121775000D01*
X77986000Y-121744000D01*
X77973000Y-121713000D01*
X77962000Y-121681000D01*
X77952000Y-121648000D01*
X77944000Y-121615000D01*
X77938000Y-121582000D01*
X77934000Y-121548000D01*
X77931000Y-121514000D01*
X77930000Y-121480000D01*
X77930000Y-120880000D01*
X77931000Y-120846000D01*
X77934000Y-120812000D01*
X77938000Y-120778000D01*
X77944000Y-120745000D01*
X77952000Y-120712000D01*
X77962000Y-120679000D01*
X77973000Y-120647000D01*
X77986000Y-120616000D01*
X78001000Y-120585000D01*
X78017000Y-120555000D01*
X78035000Y-120526000D01*
X78054000Y-120498000D01*
X78075000Y-120471000D01*
X78097000Y-120445000D01*
X78120000Y-120420000D01*
X78145000Y-120397000D01*
X78171000Y-120375000D01*
X78198000Y-120354000D01*
X78226000Y-120335000D01*
X78255000Y-120317000D01*
X78285000Y-120301000D01*
X78316000Y-120286000D01*
X78347000Y-120273000D01*
X78379000Y-120262000D01*
X78412000Y-120252000D01*
X78445000Y-120244000D01*
X78478000Y-120238000D01*
X78512000Y-120234000D01*
X78546000Y-120231000D01*
X78580000Y-120230000D01*
X78614000Y-120231000D01*
G37*
X78614000Y-124031000D02*
X78648000Y-124034000D01*
X78682000Y-124038000D01*
X78715000Y-124044000D01*
X78748000Y-124052000D01*
X78781000Y-124062000D01*
X78813000Y-124073000D01*
X78844000Y-124086000D01*
X78875000Y-124101000D01*
X78905000Y-124117000D01*
X78934000Y-124135000D01*
X78962000Y-124154000D01*
X78989000Y-124175000D01*
X79015000Y-124197000D01*
X79040000Y-124220000D01*
X79063000Y-124245000D01*
X79085000Y-124271000D01*
X79106000Y-124298000D01*
X79125000Y-124326000D01*
X79143000Y-124355000D01*
X79159000Y-124385000D01*
X79174000Y-124416000D01*
X79187000Y-124447000D01*
X79198000Y-124479000D01*
X79208000Y-124512000D01*
X79216000Y-124545000D01*
X79222000Y-124578000D01*
X79226000Y-124612000D01*
X79229000Y-124646000D01*
X79230000Y-124680000D01*
X79230000Y-125280000D01*
X79229000Y-125314000D01*
X79226000Y-125348000D01*
X79222000Y-125382000D01*
X79216000Y-125415000D01*
X79208000Y-125448000D01*
X79198000Y-125481000D01*
X79187000Y-125513000D01*
X79174000Y-125544000D01*
X79159000Y-125575000D01*
X79143000Y-125605000D01*
X79125000Y-125634000D01*
X79106000Y-125662000D01*
X79085000Y-125689000D01*
X79063000Y-125715000D01*
X79040000Y-125740000D01*
X79015000Y-125763000D01*
X78989000Y-125785000D01*
X78962000Y-125806000D01*
X78934000Y-125825000D01*
X78905000Y-125843000D01*
X78875000Y-125859000D01*
X78844000Y-125874000D01*
X78813000Y-125887000D01*
X78781000Y-125898000D01*
X78748000Y-125908000D01*
X78715000Y-125916000D01*
X78682000Y-125922000D01*
X78648000Y-125926000D01*
X78614000Y-125929000D01*
X78580000Y-125930000D01*
X78546000Y-125929000D01*
X78512000Y-125926000D01*
X78478000Y-125922000D01*
X78445000Y-125916000D01*
X78412000Y-125908000D01*
X78379000Y-125898000D01*
X78347000Y-125887000D01*
X78316000Y-125874000D01*
X78285000Y-125859000D01*
X78255000Y-125843000D01*
X78226000Y-125825000D01*
X78198000Y-125806000D01*
X78171000Y-125785000D01*
X78145000Y-125763000D01*
X78120000Y-125740000D01*
X78097000Y-125715000D01*
X78075000Y-125689000D01*
X78054000Y-125662000D01*
X78035000Y-125634000D01*
X78017000Y-125605000D01*
X78001000Y-125575000D01*
X77986000Y-125544000D01*
X77973000Y-125513000D01*
X77962000Y-125481000D01*
X77952000Y-125448000D01*
X77944000Y-125415000D01*
X77938000Y-125382000D01*
X77934000Y-125348000D01*
X77931000Y-125314000D01*
X77930000Y-125280000D01*
X77930000Y-124680000D01*
X77931000Y-124646000D01*
X77934000Y-124612000D01*
X77938000Y-124578000D01*
X77944000Y-124545000D01*
X77952000Y-124512000D01*
X77962000Y-124479000D01*
X77973000Y-124447000D01*
X77986000Y-124416000D01*
X78001000Y-124385000D01*
X78017000Y-124355000D01*
X78035000Y-124326000D01*
X78054000Y-124298000D01*
X78075000Y-124271000D01*
X78097000Y-124245000D01*
X78120000Y-124220000D01*
X78145000Y-124197000D01*
X78171000Y-124175000D01*
X78198000Y-124154000D01*
X78226000Y-124135000D01*
X78255000Y-124117000D01*
X78285000Y-124101000D01*
X78316000Y-124086000D01*
X78347000Y-124073000D01*
X78379000Y-124062000D01*
X78412000Y-124052000D01*
X78445000Y-124044000D01*
X78478000Y-124038000D01*
X78512000Y-124034000D01*
X78546000Y-124031000D01*
X78580000Y-124030000D01*
X78614000Y-124031000D01*
G36*
X78614000Y-124031000D02*
G01*
X78648000Y-124034000D01*
X78682000Y-124038000D01*
X78715000Y-124044000D01*
X78748000Y-124052000D01*
X78781000Y-124062000D01*
X78813000Y-124073000D01*
X78844000Y-124086000D01*
X78875000Y-124101000D01*
X78905000Y-124117000D01*
X78934000Y-124135000D01*
X78962000Y-124154000D01*
X78989000Y-124175000D01*
X79015000Y-124197000D01*
X79040000Y-124220000D01*
X79063000Y-124245000D01*
X79085000Y-124271000D01*
X79106000Y-124298000D01*
X79125000Y-124326000D01*
X79143000Y-124355000D01*
X79159000Y-124385000D01*
X79174000Y-124416000D01*
X79187000Y-124447000D01*
X79198000Y-124479000D01*
X79208000Y-124512000D01*
X79216000Y-124545000D01*
X79222000Y-124578000D01*
X79226000Y-124612000D01*
X79229000Y-124646000D01*
X79230000Y-124680000D01*
X79230000Y-125280000D01*
X79229000Y-125314000D01*
X79226000Y-125348000D01*
X79222000Y-125382000D01*
X79216000Y-125415000D01*
X79208000Y-125448000D01*
X79198000Y-125481000D01*
X79187000Y-125513000D01*
X79174000Y-125544000D01*
X79159000Y-125575000D01*
X79143000Y-125605000D01*
X79125000Y-125634000D01*
X79106000Y-125662000D01*
X79085000Y-125689000D01*
X79063000Y-125715000D01*
X79040000Y-125740000D01*
X79015000Y-125763000D01*
X78989000Y-125785000D01*
X78962000Y-125806000D01*
X78934000Y-125825000D01*
X78905000Y-125843000D01*
X78875000Y-125859000D01*
X78844000Y-125874000D01*
X78813000Y-125887000D01*
X78781000Y-125898000D01*
X78748000Y-125908000D01*
X78715000Y-125916000D01*
X78682000Y-125922000D01*
X78648000Y-125926000D01*
X78614000Y-125929000D01*
X78580000Y-125930000D01*
X78546000Y-125929000D01*
X78512000Y-125926000D01*
X78478000Y-125922000D01*
X78445000Y-125916000D01*
X78412000Y-125908000D01*
X78379000Y-125898000D01*
X78347000Y-125887000D01*
X78316000Y-125874000D01*
X78285000Y-125859000D01*
X78255000Y-125843000D01*
X78226000Y-125825000D01*
X78198000Y-125806000D01*
X78171000Y-125785000D01*
X78145000Y-125763000D01*
X78120000Y-125740000D01*
X78097000Y-125715000D01*
X78075000Y-125689000D01*
X78054000Y-125662000D01*
X78035000Y-125634000D01*
X78017000Y-125605000D01*
X78001000Y-125575000D01*
X77986000Y-125544000D01*
X77973000Y-125513000D01*
X77962000Y-125481000D01*
X77952000Y-125448000D01*
X77944000Y-125415000D01*
X77938000Y-125382000D01*
X77934000Y-125348000D01*
X77931000Y-125314000D01*
X77930000Y-125280000D01*
X77930000Y-124680000D01*
X77931000Y-124646000D01*
X77934000Y-124612000D01*
X77938000Y-124578000D01*
X77944000Y-124545000D01*
X77952000Y-124512000D01*
X77962000Y-124479000D01*
X77973000Y-124447000D01*
X77986000Y-124416000D01*
X78001000Y-124385000D01*
X78017000Y-124355000D01*
X78035000Y-124326000D01*
X78054000Y-124298000D01*
X78075000Y-124271000D01*
X78097000Y-124245000D01*
X78120000Y-124220000D01*
X78145000Y-124197000D01*
X78171000Y-124175000D01*
X78198000Y-124154000D01*
X78226000Y-124135000D01*
X78255000Y-124117000D01*
X78285000Y-124101000D01*
X78316000Y-124086000D01*
X78347000Y-124073000D01*
X78379000Y-124062000D01*
X78412000Y-124052000D01*
X78445000Y-124044000D01*
X78478000Y-124038000D01*
X78512000Y-124034000D01*
X78546000Y-124031000D01*
X78580000Y-124030000D01*
X78614000Y-124031000D01*
G37*
%TD*%
D11*
%TO.C,H2*%
X127590000Y-94710000D03*
%TD*%
%TO.C,H3*%
X58620000Y-94710000D03*
%TD*%
%TO.C,H4*%
X87430000Y-124520000D03*
%TD*%
%TO.C,H1*%
X127590000Y-123970000D03*
%TD*%
D12*
%TO.C,U2*%
X62740000Y-102050000D03*
X65040000Y-102050000D03*
D13*
X65040000Y-95750000D03*
D12*
X67340000Y-102050000D03*
%TD*%
D14*
%TO.C,J4*%
X105370000Y-101790000D03*
D15*
X102830000Y-101790000D03*
X105370000Y-99250000D03*
X102830000Y-99250000D03*
X105370000Y-96710000D03*
X102830000Y-96710000D03*
%TD*%
D16*
%TO.C,R2*%
X93020000Y-118310000D03*
X93020000Y-115310000D03*
%TD*%
D17*
%TO.C,R10*%
X74300000Y-107620000D03*
X71300000Y-107620000D03*
%TD*%
D15*
%TO.C,J3*%
X114730000Y-121200000D03*
X114730000Y-118660000D03*
X114730000Y-116120000D03*
X114730000Y-113580000D03*
X114730000Y-111040000D03*
%TD*%
D18*
%TO.C,U4*%
X112867800Y-95960000D03*
X112867800Y-97230000D03*
X112867800Y-98500000D03*
X112867800Y-99770000D03*
X112867800Y-101040000D03*
X112867800Y-102310000D03*
X112867800Y-103580000D03*
X112867800Y-104850000D03*
X112867800Y-106120000D03*
X122672200Y-106120000D03*
X122672200Y-104850000D03*
X122672200Y-103580000D03*
X122672200Y-102310000D03*
X122672200Y-101040000D03*
X122672200Y-99770000D03*
X122672200Y-98500000D03*
X122672200Y-97230000D03*
X122672200Y-95960000D03*
%TD*%
D17*
%TO.C,C7*%
X63880000Y-120080000D03*
X66880000Y-120080000D03*
%TD*%
D19*
%TO.C,D2*%
X60510000Y-113060000D03*
X60510000Y-109660000D03*
%TD*%
D15*
%TO.C,J7*%
X82840000Y-116450000D03*
X82840000Y-118990000D03*
X82840000Y-121530000D03*
%TD*%
D17*
%TO.C,C4*%
X66420000Y-104580000D03*
X63420000Y-104580000D03*
%TD*%
%TO.C,R9*%
X74300000Y-110880000D03*
X71300000Y-110880000D03*
%TD*%
D20*
%TO.C,C9*%
X59460000Y-118760000D03*
X59460000Y-123960000D03*
%TD*%
D15*
%TO.C,J5*%
X74140000Y-115330000D03*
X74140000Y-117870000D03*
%TD*%
D17*
%TO.C,R4*%
X71300000Y-101340000D03*
X74300000Y-101340000D03*
%TD*%
D19*
%TO.C,D1*%
X93050000Y-124177500D03*
X93050000Y-120777500D03*
%TD*%
D17*
%TO.C,C3*%
X66430000Y-111000000D03*
X63430000Y-111000000D03*
%TD*%
D21*
%TO.C,J1*%
X73760000Y-121100000D03*
X75780000Y-121100000D03*
X77010000Y-121100000D03*
X74760000Y-121100000D03*
X72740000Y-121100000D03*
X71510000Y-121100000D03*
%TD*%
D17*
%TO.C,R7*%
X102060000Y-104680000D03*
X105060000Y-104680000D03*
%TD*%
D16*
%TO.C,R8*%
X90180000Y-118170000D03*
X90180000Y-115170000D03*
%TD*%
%TO.C,C2*%
X70182880Y-95680337D03*
X70182880Y-98680337D03*
%TD*%
D22*
%TO.C,SW2*%
X105570000Y-118550000D03*
X105570000Y-125550000D03*
X101570000Y-118550000D03*
X101570000Y-125550000D03*
%TD*%
D17*
%TO.C,C5*%
X71300000Y-104700000D03*
X74300000Y-104700000D03*
%TD*%
D23*
%TO.C,U1*%
X78360000Y-94250000D03*
X78360000Y-95520000D03*
X78360000Y-96790000D03*
X78360000Y-98060000D03*
X78360000Y-99330000D03*
X78360000Y-100600000D03*
X78360000Y-101870000D03*
X78360000Y-103140000D03*
X78360000Y-104410000D03*
X78360000Y-105680000D03*
X78360000Y-106950000D03*
X78360000Y-108220000D03*
X78360000Y-109490000D03*
X78360000Y-110760000D03*
D24*
X81400000Y-112010000D03*
X82670000Y-112010000D03*
X83940000Y-112010000D03*
X85210000Y-112010000D03*
X86480000Y-112010000D03*
X87750000Y-112010000D03*
X89020000Y-112010000D03*
X90290000Y-112010000D03*
X91560000Y-112010000D03*
X92830000Y-112010000D03*
D23*
X95860000Y-110760000D03*
X95860000Y-109490000D03*
X95860000Y-108220000D03*
X95860000Y-106950000D03*
X95860000Y-105680000D03*
X95860000Y-104410000D03*
X95860000Y-103140000D03*
X95860000Y-101870000D03*
X95860000Y-100600000D03*
X95860000Y-99330000D03*
X95860000Y-98060000D03*
X95860000Y-96790000D03*
X95860000Y-95520000D03*
X95860000Y-94250000D03*
%TD*%
D15*
%TO.C,J6*%
X70220000Y-115320000D03*
X70220000Y-117860000D03*
%TD*%
D16*
%TO.C,C1*%
X72992880Y-95690337D03*
X72992880Y-98690337D03*
%TD*%
D15*
%TO.C,J2*%
X121470000Y-111050000D03*
X121470000Y-113590000D03*
X121470000Y-116130000D03*
X121470000Y-118670000D03*
X121470000Y-121210000D03*
%TD*%
D16*
%TO.C,R3*%
X60500000Y-104140000D03*
X60500000Y-107140000D03*
%TD*%
D17*
%TO.C,R1*%
X63400000Y-107740000D03*
X66400000Y-107740000D03*
%TD*%
D16*
%TO.C,R6*%
X99250000Y-100830000D03*
X99250000Y-97830000D03*
%TD*%
D17*
%TO.C,C8*%
X63930000Y-115340000D03*
X66930000Y-115340000D03*
%TD*%
D16*
%TO.C,R11*%
X78370000Y-117330000D03*
X78370000Y-114330000D03*
%TD*%
D22*
%TO.C,SW1*%
X105570000Y-108010000D03*
X105570000Y-115010000D03*
X101570000Y-108010000D03*
X101570000Y-115010000D03*
%TD*%
M02*
