%TF.GenerationSoftware,KiCad,Pcbnew,9.0.6*%
%TF.CreationDate,2026-01-13T18:35:43+05:30*%
%TF.ProjectId,Pen_Plotter,50656e5f-506c-46f7-9474-65722e6b6963,rev?*%
%TF.SameCoordinates,Original*%
%TF.FileFunction,Copper,L2,Bot*%
%TF.FilePolarity,Positive*%
%FSLAX46Y46*%
G04 Gerber Fmt 4.6, Leading zero omitted, Abs format (unit mm)*
G04 Created by KiCad (PCBNEW 9.0.6) date 2026-01-13 18:35:43*
%MOMM*%
%LPD*%
G01*
G04 APERTURE LIST*
G04 Aperture macros list*
%AMFreePoly0*
4,1,33,0.232228,0.765552,0.377117,0.705537,0.507515,0.618408,0.618408,0.507515,0.705537,0.377117,0.765552,0.232228,0.796148,0.078414,0.796148,-0.078414,0.765552,-0.232228,0.705537,-0.377117,0.618408,-0.507515,0.507515,-0.618408,0.377117,-0.705537,0.232228,-0.765552,0.078414,-0.796148,-0.078414,-0.796148,-0.232228,-0.765552,-0.377117,-0.705537,-0.507515,-0.618408,-0.618408,-0.507515,
-0.705537,-0.377117,-0.765552,-0.232228,-0.796148,-0.078414,-0.796148,0.078414,-0.765552,0.232228,-0.705537,0.377117,-0.618408,0.507515,-0.507515,0.618408,-0.377117,0.705537,-0.232228,0.765552,-0.078414,0.796148,0.078414,0.796148,0.232228,0.765552,0.232228,0.765552,$1*%
G04 Aperture macros list end*
%TA.AperFunction,ComponentPad*%
%ADD10C,3.300000*%
%TD*%
%TA.AperFunction,ComponentPad*%
%ADD11R,1.700000X1.700000*%
%TD*%
%TA.AperFunction,ComponentPad*%
%ADD12C,2.100000*%
%TD*%
%TA.AperFunction,ComponentPad*%
%ADD13FreePoly0,0.000000*%
%TD*%
%TA.AperFunction,ViaPad*%
%ADD14C,1.600000*%
%TD*%
%TA.AperFunction,Conductor*%
%ADD15C,0.400000*%
%TD*%
%TA.AperFunction,Conductor*%
%ADD16C,0.600000*%
%TD*%
G04 APERTURE END LIST*
D10*
%TO.P,H2,*%
%TO.N,*%
X127590000Y-94710000D03*
%TD*%
%TO.P,H3,*%
%TO.N,*%
X58620000Y-94710000D03*
%TD*%
%TO.P,H4,*%
%TO.N,*%
X87430000Y-124520000D03*
%TD*%
%TO.P,H1,*%
%TO.N,*%
X127590000Y-123970000D03*
%TD*%
D11*
%TO.P,J4,1,Pin_1*%
%TO.N,PWR_5V*%
X105370000Y-101790000D03*
D12*
%TO.P,J4,2,Pin_2*%
%TO.N,EN*%
X102830000Y-101790000D03*
%TO.P,J4,3,Pin_3*%
%TO.N,GPIO0*%
X105370000Y-99250000D03*
%TO.P,J4,4,Pin_4*%
%TO.N,TX*%
X102830000Y-99250000D03*
%TO.P,J4,5,Pin_5*%
%TO.N,PWR_GND*%
X105370000Y-96710000D03*
%TO.P,J4,6,Pin_6*%
%TO.N,RX*%
X102830000Y-96710000D03*
%TD*%
%TO.P,J3,1,Pin_1*%
%TO.N,PWR_5V*%
X114730000Y-121200000D03*
%TO.P,J3,2,Pin_2*%
%TO.N,OUT8*%
X114730000Y-118660000D03*
%TO.P,J3,3,Pin_3*%
%TO.N,OUT7*%
X114730000Y-116120000D03*
%TO.P,J3,4,Pin_4*%
%TO.N,OUT6*%
X114730000Y-113580000D03*
%TO.P,J3,5,Pin_5*%
%TO.N,OUT5*%
X114730000Y-111040000D03*
%TD*%
%TO.P,J7,1,Pin_1*%
%TO.N,PWR_GND*%
X82840000Y-116450000D03*
%TO.P,J7,2,Pin_2*%
%TO.N,Servo*%
X82840000Y-118990000D03*
%TO.P,J7,3,Pin_3*%
%TO.N,PWR_5V*%
X82840000Y-121530000D03*
%TD*%
%TO.P,J5,1,Pin_1*%
%TO.N,Y Lim*%
X74140000Y-115330000D03*
%TO.P,J5,2,Pin_2*%
%TO.N,PWR_GND*%
X74140000Y-117870000D03*
%TD*%
D13*
%TO.P,J1,S1,SHIELD*%
%TO.N,PWR_GND*%
X69940000Y-121180000D03*
%TO.P,J1,S2,SHIELD__1*%
X78580000Y-121180000D03*
%TO.P,J1,S3,SHIELD__2*%
X69940000Y-124980000D03*
%TO.P,J1,S4,SHIELD__3*%
X78580000Y-124980000D03*
%TD*%
D12*
%TO.P,J6,1,Pin_1*%
%TO.N,X Lim*%
X70220000Y-115320000D03*
%TO.P,J6,2,Pin_2*%
%TO.N,PWR_GND*%
X70220000Y-117860000D03*
%TD*%
%TO.P,J2,1,Pin_1*%
%TO.N,PWR_5V*%
X121470000Y-111050000D03*
%TO.P,J2,2,Pin_2*%
%TO.N,OUT4*%
X121470000Y-113590000D03*
%TO.P,J2,3,Pin_3*%
%TO.N,OUT3*%
X121470000Y-116130000D03*
%TO.P,J2,4,Pin_4*%
%TO.N,OUT2*%
X121470000Y-118670000D03*
%TO.P,J2,5,Pin_5*%
%TO.N,OUT1*%
X121470000Y-121210000D03*
%TD*%
D14*
%TO.N,PWR_GND*%
X111620000Y-107690000D03*
X75130000Y-95360000D03*
X76180000Y-104620000D03*
%TO.N,VDD*%
X68890000Y-111980000D03*
X68140000Y-96320000D03*
%TO.N,EN*%
X76371767Y-99000234D03*
%TO.N,GPIO0*%
X97790000Y-123300000D03*
X76200000Y-101410000D03*
%TD*%
D15*
%TO.N,PWR_GND*%
X74140000Y-117870000D02*
X81420000Y-117870000D01*
X76244166Y-94695834D02*
X76244166Y-94660000D01*
X76180000Y-115830000D02*
X74140000Y-117870000D01*
X75580000Y-95360000D02*
X76244166Y-94695834D01*
X75130000Y-95360000D02*
X75580000Y-95360000D01*
X76180000Y-104620000D02*
X76180000Y-115830000D01*
X76244166Y-94660000D02*
X76634166Y-94270000D01*
X70220000Y-117860000D02*
X74130000Y-117860000D01*
X76634166Y-94270000D02*
X102930000Y-94270000D01*
X111240000Y-108070000D02*
X91220000Y-108070000D01*
X81420000Y-117870000D02*
X82840000Y-116450000D01*
X74130000Y-117860000D02*
X74140000Y-117870000D01*
X91220000Y-108070000D02*
X82840000Y-116450000D01*
X102930000Y-94270000D02*
X105370000Y-96710000D01*
X111620000Y-107690000D02*
X111240000Y-108070000D01*
%TO.N,VDD*%
X68140000Y-96320000D02*
X68780000Y-96960000D01*
X68780000Y-96960000D02*
X68780000Y-111870000D01*
X68780000Y-111870000D02*
X68890000Y-111980000D01*
%TO.N,EN*%
X76480001Y-98892000D02*
X99932000Y-98892000D01*
X76371767Y-99000234D02*
X76480001Y-98892000D01*
X99932000Y-98892000D02*
X102830000Y-101790000D01*
%TO.N,PWR_5V*%
X82840000Y-121530000D02*
X114400000Y-121530000D01*
X105370000Y-101790000D02*
X112210000Y-101790000D01*
X114400000Y-121530000D02*
X114730000Y-121200000D01*
X112210000Y-101790000D02*
X121470000Y-111050000D01*
D16*
%TO.N,GPIO0*%
X124440000Y-122100000D02*
X124440000Y-110340000D01*
D15*
X73910000Y-101410000D02*
X72160000Y-99660000D01*
X106970000Y-93360000D02*
X108540000Y-94930000D01*
D16*
X122430000Y-124110000D02*
X124440000Y-122100000D01*
X124440000Y-110340000D02*
X113350000Y-99250000D01*
X98600000Y-124110000D02*
X122430000Y-124110000D01*
D15*
X108540000Y-94930000D02*
X108540000Y-96080000D01*
X76200000Y-101410000D02*
X73910000Y-101410000D01*
D16*
X113350000Y-99250000D02*
X105370000Y-99250000D01*
D15*
X108540000Y-96080000D02*
X105370000Y-99250000D01*
X72160000Y-99660000D02*
X72160000Y-94450000D01*
X73250000Y-93360000D02*
X106970000Y-93360000D01*
D16*
X97790000Y-123300000D02*
X98600000Y-124110000D01*
D15*
X72160000Y-94450000D02*
X73250000Y-93360000D01*
%TD*%
M02*
