M48
; DRILL file {KiCad 9.0.6} date 2026-01-13T16:21:45+0530
; FORMAT={-:-/ absolute / metric / decimal}
; #@! TF.CreationDate,2026-01-13T16:21:45+05:30
; #@! TF.GenerationSoftware,Kicad,Pcbnew,9.0.6
; #@! TF.FileFunction,Plated,1,2,PTH
FMAT,2
METRIC
; #@! TA.AperFunction,Plated,PTH,ViaDrill
T1C0.800
; #@! TA.AperFunction,Plated,PTH,ComponentDrill
T2C0.800
; #@! TA.AperFunction,Plated,PTH,ComponentDrill
T3C1.000
; #@! TA.AperFunction,Plated,PTH,ComponentDrill
T4C1.400
; #@! TA.AperFunction,Plated,PTH,ComponentDrill
T5C3.100
%
G90
G05
T1
X68.14Y-96.32
X68.89Y-111.98
X75.13Y-95.36
X76.18Y-104.62
X76.2Y-101.41
X76.372Y-99.0
X97.79Y-123.3
X111.62Y-107.69
T3
X102.83Y-96.71
X102.83Y-99.25
X102.83Y-101.79
X105.37Y-96.71
X105.37Y-99.25
X105.37Y-101.79
T4
X70.22Y-115.32
X70.22Y-117.86
X74.14Y-115.33
X74.14Y-117.87
X82.84Y-116.45
X82.84Y-118.99
X82.84Y-121.53
X114.73Y-111.04
X114.73Y-113.58
X114.73Y-116.12
X114.73Y-118.66
X114.73Y-121.2
X121.47Y-111.05
X121.47Y-113.59
X121.47Y-116.13
X121.47Y-118.67
X121.47Y-121.21
T5
X58.62Y-94.71
X87.43Y-124.52
X127.59Y-94.71
X127.59Y-123.97
T2
G00X69.94Y-120.98
M15
G01X69.94Y-121.38
M16
G05
G00X69.94Y-124.78
M15
G01X69.94Y-125.18
M16
G05
G00X78.58Y-120.98
M15
G01X78.58Y-121.38
M16
G05
G00X78.58Y-124.78
M15
G01X78.58Y-125.18
M16
G05
M30
