%TF.GenerationSoftware,KiCad,Pcbnew,9.0.6*%
%TF.CreationDate,2026-01-13T18:35:43+05:30*%
%TF.ProjectId,Pen_Plotter,50656e5f-506c-46f7-9474-65722e6b6963,rev?*%
%TF.SameCoordinates,Original*%
%TF.FileFunction,Paste,Top*%
%TF.FilePolarity,Positive*%
%FSLAX46Y46*%
G04 Gerber Fmt 4.6, Leading zero omitted, Abs format (unit mm)*
G04 Created by KiCad (PCBNEW 9.0.6) date 2026-01-13 18:35:43*
%MOMM*%
%LPD*%
G01*
G04 APERTURE LIST*
%ADD10R,1.500000X2.000000*%
%ADD11R,3.800000X2.000000*%
%ADD12R,1.600000X1.200000*%
%ADD13R,1.200000X1.600000*%
%ADD14R,2.032000X0.660400*%
%ADD15R,1.700000X1.400000*%
%ADD16R,1.000000X3.000000*%
%ADD17R,0.600000X1.200000*%
%ADD18R,1.500000X2.500000*%
%ADD19R,1.500000X0.800000*%
%ADD20R,0.800000X1.500000*%
G04 APERTURE END LIST*
D10*
%TO.C,U2*%
X62740000Y-102050000D03*
X65040000Y-102050000D03*
D11*
X65040000Y-95750000D03*
D10*
X67340000Y-102050000D03*
%TD*%
D12*
%TO.C,R2*%
X93020000Y-118310000D03*
X93020000Y-115310000D03*
%TD*%
D13*
%TO.C,R10*%
X74300000Y-107620000D03*
X71300000Y-107620000D03*
%TD*%
D14*
%TO.C,U4*%
X112867800Y-95960000D03*
X112867800Y-97230000D03*
X112867800Y-98500000D03*
X112867800Y-99770000D03*
X112867800Y-101040000D03*
X112867800Y-102310000D03*
X112867800Y-103580000D03*
X112867800Y-104850000D03*
X112867800Y-106120000D03*
X122672200Y-106120000D03*
X122672200Y-104850000D03*
X122672200Y-103580000D03*
X122672200Y-102310000D03*
X122672200Y-101040000D03*
X122672200Y-99770000D03*
X122672200Y-98500000D03*
X122672200Y-97230000D03*
X122672200Y-95960000D03*
%TD*%
D13*
%TO.C,C7*%
X63880000Y-120080000D03*
X66880000Y-120080000D03*
%TD*%
D15*
%TO.C,D2*%
X60510000Y-113060000D03*
X60510000Y-109660000D03*
%TD*%
D13*
%TO.C,C4*%
X66420000Y-104580000D03*
X63420000Y-104580000D03*
%TD*%
%TO.C,R9*%
X74300000Y-110880000D03*
X71300000Y-110880000D03*
%TD*%
D16*
%TO.C,C9*%
X59460000Y-118760000D03*
X59460000Y-123960000D03*
%TD*%
D13*
%TO.C,R4*%
X71300000Y-101340000D03*
X74300000Y-101340000D03*
%TD*%
D15*
%TO.C,D1*%
X93050000Y-124177500D03*
X93050000Y-120777500D03*
%TD*%
D13*
%TO.C,C3*%
X66430000Y-111000000D03*
X63430000Y-111000000D03*
%TD*%
D17*
%TO.C,J1*%
X73760000Y-121100000D03*
X75780000Y-121100000D03*
X77010000Y-121100000D03*
X74760000Y-121100000D03*
X72740000Y-121100000D03*
X71510000Y-121100000D03*
%TD*%
D13*
%TO.C,R7*%
X102060000Y-104680000D03*
X105060000Y-104680000D03*
%TD*%
D12*
%TO.C,R8*%
X90180000Y-118170000D03*
X90180000Y-115170000D03*
%TD*%
%TO.C,C2*%
X70182880Y-95680337D03*
X70182880Y-98680337D03*
%TD*%
D18*
%TO.C,SW2*%
X105570000Y-118550000D03*
X105570000Y-125550000D03*
X101570000Y-118550000D03*
X101570000Y-125550000D03*
%TD*%
D13*
%TO.C,C5*%
X71300000Y-104700000D03*
X74300000Y-104700000D03*
%TD*%
D19*
%TO.C,U1*%
X78360000Y-94250000D03*
X78360000Y-95520000D03*
X78360000Y-96790000D03*
X78360000Y-98060000D03*
X78360000Y-99330000D03*
X78360000Y-100600000D03*
X78360000Y-101870000D03*
X78360000Y-103140000D03*
X78360000Y-104410000D03*
X78360000Y-105680000D03*
X78360000Y-106950000D03*
X78360000Y-108220000D03*
X78360000Y-109490000D03*
X78360000Y-110760000D03*
D20*
X81400000Y-112010000D03*
X82670000Y-112010000D03*
X83940000Y-112010000D03*
X85210000Y-112010000D03*
X86480000Y-112010000D03*
X87750000Y-112010000D03*
X89020000Y-112010000D03*
X90290000Y-112010000D03*
X91560000Y-112010000D03*
X92830000Y-112010000D03*
D19*
X95860000Y-110760000D03*
X95860000Y-109490000D03*
X95860000Y-108220000D03*
X95860000Y-106950000D03*
X95860000Y-105680000D03*
X95860000Y-104410000D03*
X95860000Y-103140000D03*
X95860000Y-101870000D03*
X95860000Y-100600000D03*
X95860000Y-99330000D03*
X95860000Y-98060000D03*
X95860000Y-96790000D03*
X95860000Y-95520000D03*
X95860000Y-94250000D03*
%TD*%
D12*
%TO.C,C1*%
X72992880Y-95690337D03*
X72992880Y-98690337D03*
%TD*%
%TO.C,R3*%
X60500000Y-104140000D03*
X60500000Y-107140000D03*
%TD*%
D13*
%TO.C,R1*%
X63400000Y-107740000D03*
X66400000Y-107740000D03*
%TD*%
D12*
%TO.C,R6*%
X99250000Y-100830000D03*
X99250000Y-97830000D03*
%TD*%
D13*
%TO.C,C8*%
X63930000Y-115340000D03*
X66930000Y-115340000D03*
%TD*%
D12*
%TO.C,R11*%
X78370000Y-117330000D03*
X78370000Y-114330000D03*
%TD*%
D18*
%TO.C,SW1*%
X105570000Y-108010000D03*
X105570000Y-115010000D03*
X101570000Y-108010000D03*
X101570000Y-115010000D03*
%TD*%
M02*
