%TF.GenerationSoftware,KiCad,Pcbnew,9.0.6*%
%TF.CreationDate,2026-01-13T18:35:44+05:30*%
%TF.ProjectId,Pen_Plotter,50656e5f-506c-46f7-9474-65722e6b6963,rev?*%
%TF.SameCoordinates,Original*%
%TF.FileFunction,Legend,Top*%
%TF.FilePolarity,Positive*%
%FSLAX46Y46*%
G04 Gerber Fmt 4.6, Leading zero omitted, Abs format (unit mm)*
G04 Created by KiCad (PCBNEW 9.0.6) date 2026-01-13 18:35:44*
%MOMM*%
%LPD*%
G01*
G04 APERTURE LIST*
%ADD10C,0.150000*%
%ADD11C,0.120000*%
%ADD12C,0.152400*%
%ADD13C,0.050800*%
%ADD14C,0.010000*%
%ADD15C,0.200000*%
G04 APERTURE END LIST*
D10*
X129926779Y-95164819D02*
X129926779Y-94164819D01*
X129926779Y-94164819D02*
X130260112Y-94879104D01*
X130260112Y-94879104D02*
X130593445Y-94164819D01*
X130593445Y-94164819D02*
X130593445Y-95164819D01*
X130974398Y-94164819D02*
X131593445Y-94164819D01*
X131593445Y-94164819D02*
X131260112Y-94545771D01*
X131260112Y-94545771D02*
X131402969Y-94545771D01*
X131402969Y-94545771D02*
X131498207Y-94593390D01*
X131498207Y-94593390D02*
X131545826Y-94641009D01*
X131545826Y-94641009D02*
X131593445Y-94736247D01*
X131593445Y-94736247D02*
X131593445Y-94974342D01*
X131593445Y-94974342D02*
X131545826Y-95069580D01*
X131545826Y-95069580D02*
X131498207Y-95117200D01*
X131498207Y-95117200D02*
X131402969Y-95164819D01*
X131402969Y-95164819D02*
X131117255Y-95164819D01*
X131117255Y-95164819D02*
X131022017Y-95117200D01*
X131022017Y-95117200D02*
X130974398Y-95069580D01*
X60956779Y-95164819D02*
X60956779Y-94164819D01*
X60956779Y-94164819D02*
X61290112Y-94879104D01*
X61290112Y-94879104D02*
X61623445Y-94164819D01*
X61623445Y-94164819D02*
X61623445Y-95164819D01*
X62004398Y-94164819D02*
X62623445Y-94164819D01*
X62623445Y-94164819D02*
X62290112Y-94545771D01*
X62290112Y-94545771D02*
X62432969Y-94545771D01*
X62432969Y-94545771D02*
X62528207Y-94593390D01*
X62528207Y-94593390D02*
X62575826Y-94641009D01*
X62575826Y-94641009D02*
X62623445Y-94736247D01*
X62623445Y-94736247D02*
X62623445Y-94974342D01*
X62623445Y-94974342D02*
X62575826Y-95069580D01*
X62575826Y-95069580D02*
X62528207Y-95117200D01*
X62528207Y-95117200D02*
X62432969Y-95164819D01*
X62432969Y-95164819D02*
X62147255Y-95164819D01*
X62147255Y-95164819D02*
X62052017Y-95117200D01*
X62052017Y-95117200D02*
X62004398Y-95069580D01*
X89766779Y-124974819D02*
X89766779Y-123974819D01*
X89766779Y-123974819D02*
X90100112Y-124689104D01*
X90100112Y-124689104D02*
X90433445Y-123974819D01*
X90433445Y-123974819D02*
X90433445Y-124974819D01*
X90814398Y-123974819D02*
X91433445Y-123974819D01*
X91433445Y-123974819D02*
X91100112Y-124355771D01*
X91100112Y-124355771D02*
X91242969Y-124355771D01*
X91242969Y-124355771D02*
X91338207Y-124403390D01*
X91338207Y-124403390D02*
X91385826Y-124451009D01*
X91385826Y-124451009D02*
X91433445Y-124546247D01*
X91433445Y-124546247D02*
X91433445Y-124784342D01*
X91433445Y-124784342D02*
X91385826Y-124879580D01*
X91385826Y-124879580D02*
X91338207Y-124927200D01*
X91338207Y-124927200D02*
X91242969Y-124974819D01*
X91242969Y-124974819D02*
X90957255Y-124974819D01*
X90957255Y-124974819D02*
X90862017Y-124927200D01*
X90862017Y-124927200D02*
X90814398Y-124879580D01*
X129926779Y-124424819D02*
X129926779Y-123424819D01*
X129926779Y-123424819D02*
X130260112Y-124139104D01*
X130260112Y-124139104D02*
X130593445Y-123424819D01*
X130593445Y-123424819D02*
X130593445Y-124424819D01*
X130974398Y-123424819D02*
X131593445Y-123424819D01*
X131593445Y-123424819D02*
X131260112Y-123805771D01*
X131260112Y-123805771D02*
X131402969Y-123805771D01*
X131402969Y-123805771D02*
X131498207Y-123853390D01*
X131498207Y-123853390D02*
X131545826Y-123901009D01*
X131545826Y-123901009D02*
X131593445Y-123996247D01*
X131593445Y-123996247D02*
X131593445Y-124234342D01*
X131593445Y-124234342D02*
X131545826Y-124329580D01*
X131545826Y-124329580D02*
X131498207Y-124377200D01*
X131498207Y-124377200D02*
X131402969Y-124424819D01*
X131402969Y-124424819D02*
X131117255Y-124424819D01*
X131117255Y-124424819D02*
X131022017Y-124377200D01*
X131022017Y-124377200D02*
X130974398Y-124329580D01*
X59994819Y-99661904D02*
X60804342Y-99661904D01*
X60804342Y-99661904D02*
X60899580Y-99614285D01*
X60899580Y-99614285D02*
X60947200Y-99566666D01*
X60947200Y-99566666D02*
X60994819Y-99471428D01*
X60994819Y-99471428D02*
X60994819Y-99280952D01*
X60994819Y-99280952D02*
X60947200Y-99185714D01*
X60947200Y-99185714D02*
X60899580Y-99138095D01*
X60899580Y-99138095D02*
X60804342Y-99090476D01*
X60804342Y-99090476D02*
X59994819Y-99090476D01*
X60090057Y-98661904D02*
X60042438Y-98614285D01*
X60042438Y-98614285D02*
X59994819Y-98519047D01*
X59994819Y-98519047D02*
X59994819Y-98280952D01*
X59994819Y-98280952D02*
X60042438Y-98185714D01*
X60042438Y-98185714D02*
X60090057Y-98138095D01*
X60090057Y-98138095D02*
X60185295Y-98090476D01*
X60185295Y-98090476D02*
X60280533Y-98090476D01*
X60280533Y-98090476D02*
X60423390Y-98138095D01*
X60423390Y-98138095D02*
X60994819Y-98709523D01*
X60994819Y-98709523D02*
X60994819Y-98090476D01*
X99381666Y-103514819D02*
X99381666Y-104229104D01*
X99381666Y-104229104D02*
X99334047Y-104371961D01*
X99334047Y-104371961D02*
X99238809Y-104467200D01*
X99238809Y-104467200D02*
X99095952Y-104514819D01*
X99095952Y-104514819D02*
X99000714Y-104514819D01*
X100286428Y-103848152D02*
X100286428Y-104514819D01*
X100048333Y-103467200D02*
X99810238Y-104181485D01*
X99810238Y-104181485D02*
X100429285Y-104181485D01*
X91624819Y-116976666D02*
X91148628Y-117309999D01*
X91624819Y-117548094D02*
X90624819Y-117548094D01*
X90624819Y-117548094D02*
X90624819Y-117167142D01*
X90624819Y-117167142D02*
X90672438Y-117071904D01*
X90672438Y-117071904D02*
X90720057Y-117024285D01*
X90720057Y-117024285D02*
X90815295Y-116976666D01*
X90815295Y-116976666D02*
X90958152Y-116976666D01*
X90958152Y-116976666D02*
X91053390Y-117024285D01*
X91053390Y-117024285D02*
X91101009Y-117071904D01*
X91101009Y-117071904D02*
X91148628Y-117167142D01*
X91148628Y-117167142D02*
X91148628Y-117548094D01*
X90720057Y-116595713D02*
X90672438Y-116548094D01*
X90672438Y-116548094D02*
X90624819Y-116452856D01*
X90624819Y-116452856D02*
X90624819Y-116214761D01*
X90624819Y-116214761D02*
X90672438Y-116119523D01*
X90672438Y-116119523D02*
X90720057Y-116071904D01*
X90720057Y-116071904D02*
X90815295Y-116024285D01*
X90815295Y-116024285D02*
X90910533Y-116024285D01*
X90910533Y-116024285D02*
X91053390Y-116071904D01*
X91053390Y-116071904D02*
X91624819Y-116643332D01*
X91624819Y-116643332D02*
X91624819Y-116024285D01*
X72157142Y-109924819D02*
X71823809Y-109448628D01*
X71585714Y-109924819D02*
X71585714Y-108924819D01*
X71585714Y-108924819D02*
X71966666Y-108924819D01*
X71966666Y-108924819D02*
X72061904Y-108972438D01*
X72061904Y-108972438D02*
X72109523Y-109020057D01*
X72109523Y-109020057D02*
X72157142Y-109115295D01*
X72157142Y-109115295D02*
X72157142Y-109258152D01*
X72157142Y-109258152D02*
X72109523Y-109353390D01*
X72109523Y-109353390D02*
X72061904Y-109401009D01*
X72061904Y-109401009D02*
X71966666Y-109448628D01*
X71966666Y-109448628D02*
X71585714Y-109448628D01*
X73109523Y-109924819D02*
X72538095Y-109924819D01*
X72823809Y-109924819D02*
X72823809Y-108924819D01*
X72823809Y-108924819D02*
X72728571Y-109067676D01*
X72728571Y-109067676D02*
X72633333Y-109162914D01*
X72633333Y-109162914D02*
X72538095Y-109210533D01*
X73728571Y-108924819D02*
X73823809Y-108924819D01*
X73823809Y-108924819D02*
X73919047Y-108972438D01*
X73919047Y-108972438D02*
X73966666Y-109020057D01*
X73966666Y-109020057D02*
X74014285Y-109115295D01*
X74014285Y-109115295D02*
X74061904Y-109305771D01*
X74061904Y-109305771D02*
X74061904Y-109543866D01*
X74061904Y-109543866D02*
X74014285Y-109734342D01*
X74014285Y-109734342D02*
X73966666Y-109829580D01*
X73966666Y-109829580D02*
X73919047Y-109877200D01*
X73919047Y-109877200D02*
X73823809Y-109924819D01*
X73823809Y-109924819D02*
X73728571Y-109924819D01*
X73728571Y-109924819D02*
X73633333Y-109877200D01*
X73633333Y-109877200D02*
X73585714Y-109829580D01*
X73585714Y-109829580D02*
X73538095Y-109734342D01*
X73538095Y-109734342D02*
X73490476Y-109543866D01*
X73490476Y-109543866D02*
X73490476Y-109305771D01*
X73490476Y-109305771D02*
X73538095Y-109115295D01*
X73538095Y-109115295D02*
X73585714Y-109020057D01*
X73585714Y-109020057D02*
X73633333Y-108972438D01*
X73633333Y-108972438D02*
X73728571Y-108924819D01*
X114396666Y-122984819D02*
X114396666Y-123699104D01*
X114396666Y-123699104D02*
X114349047Y-123841961D01*
X114349047Y-123841961D02*
X114253809Y-123937200D01*
X114253809Y-123937200D02*
X114110952Y-123984819D01*
X114110952Y-123984819D02*
X114015714Y-123984819D01*
X114777619Y-122984819D02*
X115396666Y-122984819D01*
X115396666Y-122984819D02*
X115063333Y-123365771D01*
X115063333Y-123365771D02*
X115206190Y-123365771D01*
X115206190Y-123365771D02*
X115301428Y-123413390D01*
X115301428Y-123413390D02*
X115349047Y-123461009D01*
X115349047Y-123461009D02*
X115396666Y-123556247D01*
X115396666Y-123556247D02*
X115396666Y-123794342D01*
X115396666Y-123794342D02*
X115349047Y-123889580D01*
X115349047Y-123889580D02*
X115301428Y-123937200D01*
X115301428Y-123937200D02*
X115206190Y-123984819D01*
X115206190Y-123984819D02*
X114920476Y-123984819D01*
X114920476Y-123984819D02*
X114825238Y-123937200D01*
X114825238Y-123937200D02*
X114777619Y-123889580D01*
X116715970Y-95065989D02*
X117526163Y-95065989D01*
X117526163Y-95065989D02*
X117621480Y-95018331D01*
X117621480Y-95018331D02*
X117669139Y-94970673D01*
X117669139Y-94970673D02*
X117716797Y-94875356D01*
X117716797Y-94875356D02*
X117716797Y-94684722D01*
X117716797Y-94684722D02*
X117669139Y-94589405D01*
X117669139Y-94589405D02*
X117621480Y-94541747D01*
X117621480Y-94541747D02*
X117526163Y-94494088D01*
X117526163Y-94494088D02*
X116715970Y-94494088D01*
X117049579Y-93588579D02*
X117716797Y-93588579D01*
X116668312Y-93826871D02*
X117383188Y-94065163D01*
X117383188Y-94065163D02*
X117383188Y-93445603D01*
X66113333Y-118639580D02*
X66065714Y-118687200D01*
X66065714Y-118687200D02*
X65922857Y-118734819D01*
X65922857Y-118734819D02*
X65827619Y-118734819D01*
X65827619Y-118734819D02*
X65684762Y-118687200D01*
X65684762Y-118687200D02*
X65589524Y-118591961D01*
X65589524Y-118591961D02*
X65541905Y-118496723D01*
X65541905Y-118496723D02*
X65494286Y-118306247D01*
X65494286Y-118306247D02*
X65494286Y-118163390D01*
X65494286Y-118163390D02*
X65541905Y-117972914D01*
X65541905Y-117972914D02*
X65589524Y-117877676D01*
X65589524Y-117877676D02*
X65684762Y-117782438D01*
X65684762Y-117782438D02*
X65827619Y-117734819D01*
X65827619Y-117734819D02*
X65922857Y-117734819D01*
X65922857Y-117734819D02*
X66065714Y-117782438D01*
X66065714Y-117782438D02*
X66113333Y-117830057D01*
X66446667Y-117734819D02*
X67113333Y-117734819D01*
X67113333Y-117734819D02*
X66684762Y-118734819D01*
X59114819Y-112098094D02*
X58114819Y-112098094D01*
X58114819Y-112098094D02*
X58114819Y-111859999D01*
X58114819Y-111859999D02*
X58162438Y-111717142D01*
X58162438Y-111717142D02*
X58257676Y-111621904D01*
X58257676Y-111621904D02*
X58352914Y-111574285D01*
X58352914Y-111574285D02*
X58543390Y-111526666D01*
X58543390Y-111526666D02*
X58686247Y-111526666D01*
X58686247Y-111526666D02*
X58876723Y-111574285D01*
X58876723Y-111574285D02*
X58971961Y-111621904D01*
X58971961Y-111621904D02*
X59067200Y-111717142D01*
X59067200Y-111717142D02*
X59114819Y-111859999D01*
X59114819Y-111859999D02*
X59114819Y-112098094D01*
X58210057Y-111145713D02*
X58162438Y-111098094D01*
X58162438Y-111098094D02*
X58114819Y-111002856D01*
X58114819Y-111002856D02*
X58114819Y-110764761D01*
X58114819Y-110764761D02*
X58162438Y-110669523D01*
X58162438Y-110669523D02*
X58210057Y-110621904D01*
X58210057Y-110621904D02*
X58305295Y-110574285D01*
X58305295Y-110574285D02*
X58400533Y-110574285D01*
X58400533Y-110574285D02*
X58543390Y-110621904D01*
X58543390Y-110621904D02*
X59114819Y-111193332D01*
X59114819Y-111193332D02*
X59114819Y-110574285D01*
X82506666Y-113574819D02*
X82506666Y-114289104D01*
X82506666Y-114289104D02*
X82459047Y-114431961D01*
X82459047Y-114431961D02*
X82363809Y-114527200D01*
X82363809Y-114527200D02*
X82220952Y-114574819D01*
X82220952Y-114574819D02*
X82125714Y-114574819D01*
X82887619Y-113574819D02*
X83554285Y-113574819D01*
X83554285Y-113574819D02*
X83125714Y-114574819D01*
X63853333Y-106739580D02*
X63805714Y-106787200D01*
X63805714Y-106787200D02*
X63662857Y-106834819D01*
X63662857Y-106834819D02*
X63567619Y-106834819D01*
X63567619Y-106834819D02*
X63424762Y-106787200D01*
X63424762Y-106787200D02*
X63329524Y-106691961D01*
X63329524Y-106691961D02*
X63281905Y-106596723D01*
X63281905Y-106596723D02*
X63234286Y-106406247D01*
X63234286Y-106406247D02*
X63234286Y-106263390D01*
X63234286Y-106263390D02*
X63281905Y-106072914D01*
X63281905Y-106072914D02*
X63329524Y-105977676D01*
X63329524Y-105977676D02*
X63424762Y-105882438D01*
X63424762Y-105882438D02*
X63567619Y-105834819D01*
X63567619Y-105834819D02*
X63662857Y-105834819D01*
X63662857Y-105834819D02*
X63805714Y-105882438D01*
X63805714Y-105882438D02*
X63853333Y-105930057D01*
X64710476Y-106168152D02*
X64710476Y-106834819D01*
X64472381Y-105787200D02*
X64234286Y-106501485D01*
X64234286Y-106501485D02*
X64853333Y-106501485D01*
X72633333Y-113184819D02*
X72300000Y-112708628D01*
X72061905Y-113184819D02*
X72061905Y-112184819D01*
X72061905Y-112184819D02*
X72442857Y-112184819D01*
X72442857Y-112184819D02*
X72538095Y-112232438D01*
X72538095Y-112232438D02*
X72585714Y-112280057D01*
X72585714Y-112280057D02*
X72633333Y-112375295D01*
X72633333Y-112375295D02*
X72633333Y-112518152D01*
X72633333Y-112518152D02*
X72585714Y-112613390D01*
X72585714Y-112613390D02*
X72538095Y-112661009D01*
X72538095Y-112661009D02*
X72442857Y-112708628D01*
X72442857Y-112708628D02*
X72061905Y-112708628D01*
X73109524Y-113184819D02*
X73300000Y-113184819D01*
X73300000Y-113184819D02*
X73395238Y-113137200D01*
X73395238Y-113137200D02*
X73442857Y-113089580D01*
X73442857Y-113089580D02*
X73538095Y-112946723D01*
X73538095Y-112946723D02*
X73585714Y-112756247D01*
X73585714Y-112756247D02*
X73585714Y-112375295D01*
X73585714Y-112375295D02*
X73538095Y-112280057D01*
X73538095Y-112280057D02*
X73490476Y-112232438D01*
X73490476Y-112232438D02*
X73395238Y-112184819D01*
X73395238Y-112184819D02*
X73204762Y-112184819D01*
X73204762Y-112184819D02*
X73109524Y-112232438D01*
X73109524Y-112232438D02*
X73061905Y-112280057D01*
X73061905Y-112280057D02*
X73014286Y-112375295D01*
X73014286Y-112375295D02*
X73014286Y-112613390D01*
X73014286Y-112613390D02*
X73061905Y-112708628D01*
X73061905Y-112708628D02*
X73109524Y-112756247D01*
X73109524Y-112756247D02*
X73204762Y-112803866D01*
X73204762Y-112803866D02*
X73395238Y-112803866D01*
X73395238Y-112803866D02*
X73490476Y-112756247D01*
X73490476Y-112756247D02*
X73538095Y-112708628D01*
X73538095Y-112708628D02*
X73585714Y-112613390D01*
X64119580Y-121526666D02*
X64167200Y-121574285D01*
X64167200Y-121574285D02*
X64214819Y-121717142D01*
X64214819Y-121717142D02*
X64214819Y-121812380D01*
X64214819Y-121812380D02*
X64167200Y-121955237D01*
X64167200Y-121955237D02*
X64071961Y-122050475D01*
X64071961Y-122050475D02*
X63976723Y-122098094D01*
X63976723Y-122098094D02*
X63786247Y-122145713D01*
X63786247Y-122145713D02*
X63643390Y-122145713D01*
X63643390Y-122145713D02*
X63452914Y-122098094D01*
X63452914Y-122098094D02*
X63357676Y-122050475D01*
X63357676Y-122050475D02*
X63262438Y-121955237D01*
X63262438Y-121955237D02*
X63214819Y-121812380D01*
X63214819Y-121812380D02*
X63214819Y-121717142D01*
X63214819Y-121717142D02*
X63262438Y-121574285D01*
X63262438Y-121574285D02*
X63310057Y-121526666D01*
X64214819Y-121050475D02*
X64214819Y-120859999D01*
X64214819Y-120859999D02*
X64167200Y-120764761D01*
X64167200Y-120764761D02*
X64119580Y-120717142D01*
X64119580Y-120717142D02*
X63976723Y-120621904D01*
X63976723Y-120621904D02*
X63786247Y-120574285D01*
X63786247Y-120574285D02*
X63405295Y-120574285D01*
X63405295Y-120574285D02*
X63310057Y-120621904D01*
X63310057Y-120621904D02*
X63262438Y-120669523D01*
X63262438Y-120669523D02*
X63214819Y-120764761D01*
X63214819Y-120764761D02*
X63214819Y-120955237D01*
X63214819Y-120955237D02*
X63262438Y-121050475D01*
X63262438Y-121050475D02*
X63310057Y-121098094D01*
X63310057Y-121098094D02*
X63405295Y-121145713D01*
X63405295Y-121145713D02*
X63643390Y-121145713D01*
X63643390Y-121145713D02*
X63738628Y-121098094D01*
X63738628Y-121098094D02*
X63786247Y-121050475D01*
X63786247Y-121050475D02*
X63833866Y-120955237D01*
X63833866Y-120955237D02*
X63833866Y-120764761D01*
X63833866Y-120764761D02*
X63786247Y-120669523D01*
X63786247Y-120669523D02*
X63738628Y-120621904D01*
X63738628Y-120621904D02*
X63643390Y-120574285D01*
X70946666Y-114144819D02*
X70946666Y-114859104D01*
X70946666Y-114859104D02*
X70899047Y-115001961D01*
X70899047Y-115001961D02*
X70803809Y-115097200D01*
X70803809Y-115097200D02*
X70660952Y-115144819D01*
X70660952Y-115144819D02*
X70565714Y-115144819D01*
X71899047Y-114144819D02*
X71422857Y-114144819D01*
X71422857Y-114144819D02*
X71375238Y-114621009D01*
X71375238Y-114621009D02*
X71422857Y-114573390D01*
X71422857Y-114573390D02*
X71518095Y-114525771D01*
X71518095Y-114525771D02*
X71756190Y-114525771D01*
X71756190Y-114525771D02*
X71851428Y-114573390D01*
X71851428Y-114573390D02*
X71899047Y-114621009D01*
X71899047Y-114621009D02*
X71946666Y-114716247D01*
X71946666Y-114716247D02*
X71946666Y-114954342D01*
X71946666Y-114954342D02*
X71899047Y-115049580D01*
X71899047Y-115049580D02*
X71851428Y-115097200D01*
X71851428Y-115097200D02*
X71756190Y-115144819D01*
X71756190Y-115144819D02*
X71518095Y-115144819D01*
X71518095Y-115144819D02*
X71422857Y-115097200D01*
X71422857Y-115097200D02*
X71375238Y-115049580D01*
X72633333Y-99944819D02*
X72300000Y-99468628D01*
X72061905Y-99944819D02*
X72061905Y-98944819D01*
X72061905Y-98944819D02*
X72442857Y-98944819D01*
X72442857Y-98944819D02*
X72538095Y-98992438D01*
X72538095Y-98992438D02*
X72585714Y-99040057D01*
X72585714Y-99040057D02*
X72633333Y-99135295D01*
X72633333Y-99135295D02*
X72633333Y-99278152D01*
X72633333Y-99278152D02*
X72585714Y-99373390D01*
X72585714Y-99373390D02*
X72538095Y-99421009D01*
X72538095Y-99421009D02*
X72442857Y-99468628D01*
X72442857Y-99468628D02*
X72061905Y-99468628D01*
X73490476Y-99278152D02*
X73490476Y-99944819D01*
X73252381Y-98897200D02*
X73014286Y-99611485D01*
X73014286Y-99611485D02*
X73633333Y-99611485D01*
X91654819Y-123215594D02*
X90654819Y-123215594D01*
X90654819Y-123215594D02*
X90654819Y-122977499D01*
X90654819Y-122977499D02*
X90702438Y-122834642D01*
X90702438Y-122834642D02*
X90797676Y-122739404D01*
X90797676Y-122739404D02*
X90892914Y-122691785D01*
X90892914Y-122691785D02*
X91083390Y-122644166D01*
X91083390Y-122644166D02*
X91226247Y-122644166D01*
X91226247Y-122644166D02*
X91416723Y-122691785D01*
X91416723Y-122691785D02*
X91511961Y-122739404D01*
X91511961Y-122739404D02*
X91607200Y-122834642D01*
X91607200Y-122834642D02*
X91654819Y-122977499D01*
X91654819Y-122977499D02*
X91654819Y-123215594D01*
X91654819Y-121691785D02*
X91654819Y-122263213D01*
X91654819Y-121977499D02*
X90654819Y-121977499D01*
X90654819Y-121977499D02*
X90797676Y-122072737D01*
X90797676Y-122072737D02*
X90892914Y-122167975D01*
X90892914Y-122167975D02*
X90940533Y-122263213D01*
X63863333Y-113159580D02*
X63815714Y-113207200D01*
X63815714Y-113207200D02*
X63672857Y-113254819D01*
X63672857Y-113254819D02*
X63577619Y-113254819D01*
X63577619Y-113254819D02*
X63434762Y-113207200D01*
X63434762Y-113207200D02*
X63339524Y-113111961D01*
X63339524Y-113111961D02*
X63291905Y-113016723D01*
X63291905Y-113016723D02*
X63244286Y-112826247D01*
X63244286Y-112826247D02*
X63244286Y-112683390D01*
X63244286Y-112683390D02*
X63291905Y-112492914D01*
X63291905Y-112492914D02*
X63339524Y-112397676D01*
X63339524Y-112397676D02*
X63434762Y-112302438D01*
X63434762Y-112302438D02*
X63577619Y-112254819D01*
X63577619Y-112254819D02*
X63672857Y-112254819D01*
X63672857Y-112254819D02*
X63815714Y-112302438D01*
X63815714Y-112302438D02*
X63863333Y-112350057D01*
X64196667Y-112254819D02*
X64815714Y-112254819D01*
X64815714Y-112254819D02*
X64482381Y-112635771D01*
X64482381Y-112635771D02*
X64625238Y-112635771D01*
X64625238Y-112635771D02*
X64720476Y-112683390D01*
X64720476Y-112683390D02*
X64768095Y-112731009D01*
X64768095Y-112731009D02*
X64815714Y-112826247D01*
X64815714Y-112826247D02*
X64815714Y-113064342D01*
X64815714Y-113064342D02*
X64768095Y-113159580D01*
X64768095Y-113159580D02*
X64720476Y-113207200D01*
X64720476Y-113207200D02*
X64625238Y-113254819D01*
X64625238Y-113254819D02*
X64339524Y-113254819D01*
X64339524Y-113254819D02*
X64244286Y-113207200D01*
X64244286Y-113207200D02*
X64196667Y-113159580D01*
X73801666Y-118499819D02*
X73801666Y-119214104D01*
X73801666Y-119214104D02*
X73754047Y-119356961D01*
X73754047Y-119356961D02*
X73658809Y-119452200D01*
X73658809Y-119452200D02*
X73515952Y-119499819D01*
X73515952Y-119499819D02*
X73420714Y-119499819D01*
X74801666Y-119499819D02*
X74230238Y-119499819D01*
X74515952Y-119499819D02*
X74515952Y-118499819D01*
X74515952Y-118499819D02*
X74420714Y-118642676D01*
X74420714Y-118642676D02*
X74325476Y-118737914D01*
X74325476Y-118737914D02*
X74230238Y-118785533D01*
X103393333Y-103284819D02*
X103060000Y-102808628D01*
X102821905Y-103284819D02*
X102821905Y-102284819D01*
X102821905Y-102284819D02*
X103202857Y-102284819D01*
X103202857Y-102284819D02*
X103298095Y-102332438D01*
X103298095Y-102332438D02*
X103345714Y-102380057D01*
X103345714Y-102380057D02*
X103393333Y-102475295D01*
X103393333Y-102475295D02*
X103393333Y-102618152D01*
X103393333Y-102618152D02*
X103345714Y-102713390D01*
X103345714Y-102713390D02*
X103298095Y-102761009D01*
X103298095Y-102761009D02*
X103202857Y-102808628D01*
X103202857Y-102808628D02*
X102821905Y-102808628D01*
X103726667Y-102284819D02*
X104393333Y-102284819D01*
X104393333Y-102284819D02*
X103964762Y-103284819D01*
X88784819Y-116836666D02*
X88308628Y-117169999D01*
X88784819Y-117408094D02*
X87784819Y-117408094D01*
X87784819Y-117408094D02*
X87784819Y-117027142D01*
X87784819Y-117027142D02*
X87832438Y-116931904D01*
X87832438Y-116931904D02*
X87880057Y-116884285D01*
X87880057Y-116884285D02*
X87975295Y-116836666D01*
X87975295Y-116836666D02*
X88118152Y-116836666D01*
X88118152Y-116836666D02*
X88213390Y-116884285D01*
X88213390Y-116884285D02*
X88261009Y-116931904D01*
X88261009Y-116931904D02*
X88308628Y-117027142D01*
X88308628Y-117027142D02*
X88308628Y-117408094D01*
X88213390Y-116265237D02*
X88165771Y-116360475D01*
X88165771Y-116360475D02*
X88118152Y-116408094D01*
X88118152Y-116408094D02*
X88022914Y-116455713D01*
X88022914Y-116455713D02*
X87975295Y-116455713D01*
X87975295Y-116455713D02*
X87880057Y-116408094D01*
X87880057Y-116408094D02*
X87832438Y-116360475D01*
X87832438Y-116360475D02*
X87784819Y-116265237D01*
X87784819Y-116265237D02*
X87784819Y-116074761D01*
X87784819Y-116074761D02*
X87832438Y-115979523D01*
X87832438Y-115979523D02*
X87880057Y-115931904D01*
X87880057Y-115931904D02*
X87975295Y-115884285D01*
X87975295Y-115884285D02*
X88022914Y-115884285D01*
X88022914Y-115884285D02*
X88118152Y-115931904D01*
X88118152Y-115931904D02*
X88165771Y-115979523D01*
X88165771Y-115979523D02*
X88213390Y-116074761D01*
X88213390Y-116074761D02*
X88213390Y-116265237D01*
X88213390Y-116265237D02*
X88261009Y-116360475D01*
X88261009Y-116360475D02*
X88308628Y-116408094D01*
X88308628Y-116408094D02*
X88403866Y-116455713D01*
X88403866Y-116455713D02*
X88594342Y-116455713D01*
X88594342Y-116455713D02*
X88689580Y-116408094D01*
X88689580Y-116408094D02*
X88737200Y-116360475D01*
X88737200Y-116360475D02*
X88784819Y-116265237D01*
X88784819Y-116265237D02*
X88784819Y-116074761D01*
X88784819Y-116074761D02*
X88737200Y-115979523D01*
X88737200Y-115979523D02*
X88689580Y-115931904D01*
X88689580Y-115931904D02*
X88594342Y-115884285D01*
X88594342Y-115884285D02*
X88403866Y-115884285D01*
X88403866Y-115884285D02*
X88308628Y-115931904D01*
X88308628Y-115931904D02*
X88261009Y-115979523D01*
X88261009Y-115979523D02*
X88213390Y-116074761D01*
X72342460Y-98247003D02*
X72390080Y-98294622D01*
X72390080Y-98294622D02*
X72437699Y-98437479D01*
X72437699Y-98437479D02*
X72437699Y-98532717D01*
X72437699Y-98532717D02*
X72390080Y-98675574D01*
X72390080Y-98675574D02*
X72294841Y-98770812D01*
X72294841Y-98770812D02*
X72199603Y-98818431D01*
X72199603Y-98818431D02*
X72009127Y-98866050D01*
X72009127Y-98866050D02*
X71866270Y-98866050D01*
X71866270Y-98866050D02*
X71675794Y-98818431D01*
X71675794Y-98818431D02*
X71580556Y-98770812D01*
X71580556Y-98770812D02*
X71485318Y-98675574D01*
X71485318Y-98675574D02*
X71437699Y-98532717D01*
X71437699Y-98532717D02*
X71437699Y-98437479D01*
X71437699Y-98437479D02*
X71485318Y-98294622D01*
X71485318Y-98294622D02*
X71532937Y-98247003D01*
X71532937Y-97866050D02*
X71485318Y-97818431D01*
X71485318Y-97818431D02*
X71437699Y-97723193D01*
X71437699Y-97723193D02*
X71437699Y-97485098D01*
X71437699Y-97485098D02*
X71485318Y-97389860D01*
X71485318Y-97389860D02*
X71532937Y-97342241D01*
X71532937Y-97342241D02*
X71628175Y-97294622D01*
X71628175Y-97294622D02*
X71723413Y-97294622D01*
X71723413Y-97294622D02*
X71866270Y-97342241D01*
X71866270Y-97342241D02*
X72437699Y-97913669D01*
X72437699Y-97913669D02*
X72437699Y-97294622D01*
X107977200Y-123383332D02*
X108024819Y-123240475D01*
X108024819Y-123240475D02*
X108024819Y-123002380D01*
X108024819Y-123002380D02*
X107977200Y-122907142D01*
X107977200Y-122907142D02*
X107929580Y-122859523D01*
X107929580Y-122859523D02*
X107834342Y-122811904D01*
X107834342Y-122811904D02*
X107739104Y-122811904D01*
X107739104Y-122811904D02*
X107643866Y-122859523D01*
X107643866Y-122859523D02*
X107596247Y-122907142D01*
X107596247Y-122907142D02*
X107548628Y-123002380D01*
X107548628Y-123002380D02*
X107501009Y-123192856D01*
X107501009Y-123192856D02*
X107453390Y-123288094D01*
X107453390Y-123288094D02*
X107405771Y-123335713D01*
X107405771Y-123335713D02*
X107310533Y-123383332D01*
X107310533Y-123383332D02*
X107215295Y-123383332D01*
X107215295Y-123383332D02*
X107120057Y-123335713D01*
X107120057Y-123335713D02*
X107072438Y-123288094D01*
X107072438Y-123288094D02*
X107024819Y-123192856D01*
X107024819Y-123192856D02*
X107024819Y-122954761D01*
X107024819Y-122954761D02*
X107072438Y-122811904D01*
X107024819Y-122478570D02*
X108024819Y-122240475D01*
X108024819Y-122240475D02*
X107310533Y-122049999D01*
X107310533Y-122049999D02*
X108024819Y-121859523D01*
X108024819Y-121859523D02*
X107024819Y-121621428D01*
X107120057Y-121288094D02*
X107072438Y-121240475D01*
X107072438Y-121240475D02*
X107024819Y-121145237D01*
X107024819Y-121145237D02*
X107024819Y-120907142D01*
X107024819Y-120907142D02*
X107072438Y-120811904D01*
X107072438Y-120811904D02*
X107120057Y-120764285D01*
X107120057Y-120764285D02*
X107215295Y-120716666D01*
X107215295Y-120716666D02*
X107310533Y-120716666D01*
X107310533Y-120716666D02*
X107453390Y-120764285D01*
X107453390Y-120764285D02*
X108024819Y-121335713D01*
X108024819Y-121335713D02*
X108024819Y-120716666D01*
X73533333Y-103259580D02*
X73485714Y-103307200D01*
X73485714Y-103307200D02*
X73342857Y-103354819D01*
X73342857Y-103354819D02*
X73247619Y-103354819D01*
X73247619Y-103354819D02*
X73104762Y-103307200D01*
X73104762Y-103307200D02*
X73009524Y-103211961D01*
X73009524Y-103211961D02*
X72961905Y-103116723D01*
X72961905Y-103116723D02*
X72914286Y-102926247D01*
X72914286Y-102926247D02*
X72914286Y-102783390D01*
X72914286Y-102783390D02*
X72961905Y-102592914D01*
X72961905Y-102592914D02*
X73009524Y-102497676D01*
X73009524Y-102497676D02*
X73104762Y-102402438D01*
X73104762Y-102402438D02*
X73247619Y-102354819D01*
X73247619Y-102354819D02*
X73342857Y-102354819D01*
X73342857Y-102354819D02*
X73485714Y-102402438D01*
X73485714Y-102402438D02*
X73533333Y-102450057D01*
X74438095Y-102354819D02*
X73961905Y-102354819D01*
X73961905Y-102354819D02*
X73914286Y-102831009D01*
X73914286Y-102831009D02*
X73961905Y-102783390D01*
X73961905Y-102783390D02*
X74057143Y-102735771D01*
X74057143Y-102735771D02*
X74295238Y-102735771D01*
X74295238Y-102735771D02*
X74390476Y-102783390D01*
X74390476Y-102783390D02*
X74438095Y-102831009D01*
X74438095Y-102831009D02*
X74485714Y-102926247D01*
X74485714Y-102926247D02*
X74485714Y-103164342D01*
X74485714Y-103164342D02*
X74438095Y-103259580D01*
X74438095Y-103259580D02*
X74390476Y-103307200D01*
X74390476Y-103307200D02*
X74295238Y-103354819D01*
X74295238Y-103354819D02*
X74057143Y-103354819D01*
X74057143Y-103354819D02*
X73961905Y-103307200D01*
X73961905Y-103307200D02*
X73914286Y-103259580D01*
X72254819Y-111691904D02*
X73064342Y-111691904D01*
X73064342Y-111691904D02*
X73159580Y-111644285D01*
X73159580Y-111644285D02*
X73207200Y-111596666D01*
X73207200Y-111596666D02*
X73254819Y-111501428D01*
X73254819Y-111501428D02*
X73254819Y-111310952D01*
X73254819Y-111310952D02*
X73207200Y-111215714D01*
X73207200Y-111215714D02*
X73159580Y-111168095D01*
X73159580Y-111168095D02*
X73064342Y-111120476D01*
X73064342Y-111120476D02*
X72254819Y-111120476D01*
X73254819Y-110120476D02*
X73254819Y-110691904D01*
X73254819Y-110406190D02*
X72254819Y-110406190D01*
X72254819Y-110406190D02*
X72397676Y-110501428D01*
X72397676Y-110501428D02*
X72492914Y-110596666D01*
X72492914Y-110596666D02*
X72540533Y-110691904D01*
X72466666Y-112444819D02*
X72466666Y-113159104D01*
X72466666Y-113159104D02*
X72419047Y-113301961D01*
X72419047Y-113301961D02*
X72323809Y-113397200D01*
X72323809Y-113397200D02*
X72180952Y-113444819D01*
X72180952Y-113444819D02*
X72085714Y-113444819D01*
X73371428Y-112444819D02*
X73180952Y-112444819D01*
X73180952Y-112444819D02*
X73085714Y-112492438D01*
X73085714Y-112492438D02*
X73038095Y-112540057D01*
X73038095Y-112540057D02*
X72942857Y-112682914D01*
X72942857Y-112682914D02*
X72895238Y-112873390D01*
X72895238Y-112873390D02*
X72895238Y-113254342D01*
X72895238Y-113254342D02*
X72942857Y-113349580D01*
X72942857Y-113349580D02*
X72990476Y-113397200D01*
X72990476Y-113397200D02*
X73085714Y-113444819D01*
X73085714Y-113444819D02*
X73276190Y-113444819D01*
X73276190Y-113444819D02*
X73371428Y-113397200D01*
X73371428Y-113397200D02*
X73419047Y-113349580D01*
X73419047Y-113349580D02*
X73466666Y-113254342D01*
X73466666Y-113254342D02*
X73466666Y-113016247D01*
X73466666Y-113016247D02*
X73419047Y-112921009D01*
X73419047Y-112921009D02*
X73371428Y-112873390D01*
X73371428Y-112873390D02*
X73276190Y-112825771D01*
X73276190Y-112825771D02*
X73085714Y-112825771D01*
X73085714Y-112825771D02*
X72990476Y-112873390D01*
X72990476Y-112873390D02*
X72942857Y-112921009D01*
X72942857Y-112921009D02*
X72895238Y-113016247D01*
X75152460Y-98257003D02*
X75200080Y-98304622D01*
X75200080Y-98304622D02*
X75247699Y-98447479D01*
X75247699Y-98447479D02*
X75247699Y-98542717D01*
X75247699Y-98542717D02*
X75200080Y-98685574D01*
X75200080Y-98685574D02*
X75104841Y-98780812D01*
X75104841Y-98780812D02*
X75009603Y-98828431D01*
X75009603Y-98828431D02*
X74819127Y-98876050D01*
X74819127Y-98876050D02*
X74676270Y-98876050D01*
X74676270Y-98876050D02*
X74485794Y-98828431D01*
X74485794Y-98828431D02*
X74390556Y-98780812D01*
X74390556Y-98780812D02*
X74295318Y-98685574D01*
X74295318Y-98685574D02*
X74247699Y-98542717D01*
X74247699Y-98542717D02*
X74247699Y-98447479D01*
X74247699Y-98447479D02*
X74295318Y-98304622D01*
X74295318Y-98304622D02*
X74342937Y-98257003D01*
X75247699Y-97304622D02*
X75247699Y-97876050D01*
X75247699Y-97590336D02*
X74247699Y-97590336D01*
X74247699Y-97590336D02*
X74390556Y-97685574D01*
X74390556Y-97685574D02*
X74485794Y-97780812D01*
X74485794Y-97780812D02*
X74533413Y-97876050D01*
X121136666Y-108174819D02*
X121136666Y-108889104D01*
X121136666Y-108889104D02*
X121089047Y-109031961D01*
X121089047Y-109031961D02*
X120993809Y-109127200D01*
X120993809Y-109127200D02*
X120850952Y-109174819D01*
X120850952Y-109174819D02*
X120755714Y-109174819D01*
X121565238Y-108270057D02*
X121612857Y-108222438D01*
X121612857Y-108222438D02*
X121708095Y-108174819D01*
X121708095Y-108174819D02*
X121946190Y-108174819D01*
X121946190Y-108174819D02*
X122041428Y-108222438D01*
X122041428Y-108222438D02*
X122089047Y-108270057D01*
X122089047Y-108270057D02*
X122136666Y-108365295D01*
X122136666Y-108365295D02*
X122136666Y-108460533D01*
X122136666Y-108460533D02*
X122089047Y-108603390D01*
X122089047Y-108603390D02*
X121517619Y-109174819D01*
X121517619Y-109174819D02*
X122136666Y-109174819D01*
X65644819Y-105806666D02*
X65168628Y-106139999D01*
X65644819Y-106378094D02*
X64644819Y-106378094D01*
X64644819Y-106378094D02*
X64644819Y-105997142D01*
X64644819Y-105997142D02*
X64692438Y-105901904D01*
X64692438Y-105901904D02*
X64740057Y-105854285D01*
X64740057Y-105854285D02*
X64835295Y-105806666D01*
X64835295Y-105806666D02*
X64978152Y-105806666D01*
X64978152Y-105806666D02*
X65073390Y-105854285D01*
X65073390Y-105854285D02*
X65121009Y-105901904D01*
X65121009Y-105901904D02*
X65168628Y-105997142D01*
X65168628Y-105997142D02*
X65168628Y-106378094D01*
X64644819Y-105473332D02*
X64644819Y-104854285D01*
X64644819Y-104854285D02*
X65025771Y-105187618D01*
X65025771Y-105187618D02*
X65025771Y-105044761D01*
X65025771Y-105044761D02*
X65073390Y-104949523D01*
X65073390Y-104949523D02*
X65121009Y-104901904D01*
X65121009Y-104901904D02*
X65216247Y-104854285D01*
X65216247Y-104854285D02*
X65454342Y-104854285D01*
X65454342Y-104854285D02*
X65549580Y-104901904D01*
X65549580Y-104901904D02*
X65597200Y-104949523D01*
X65597200Y-104949523D02*
X65644819Y-105044761D01*
X65644819Y-105044761D02*
X65644819Y-105330475D01*
X65644819Y-105330475D02*
X65597200Y-105425713D01*
X65597200Y-105425713D02*
X65549580Y-105473332D01*
X64733333Y-106344819D02*
X64400000Y-105868628D01*
X64161905Y-106344819D02*
X64161905Y-105344819D01*
X64161905Y-105344819D02*
X64542857Y-105344819D01*
X64542857Y-105344819D02*
X64638095Y-105392438D01*
X64638095Y-105392438D02*
X64685714Y-105440057D01*
X64685714Y-105440057D02*
X64733333Y-105535295D01*
X64733333Y-105535295D02*
X64733333Y-105678152D01*
X64733333Y-105678152D02*
X64685714Y-105773390D01*
X64685714Y-105773390D02*
X64638095Y-105821009D01*
X64638095Y-105821009D02*
X64542857Y-105868628D01*
X64542857Y-105868628D02*
X64161905Y-105868628D01*
X65685714Y-106344819D02*
X65114286Y-106344819D01*
X65400000Y-106344819D02*
X65400000Y-105344819D01*
X65400000Y-105344819D02*
X65304762Y-105487676D01*
X65304762Y-105487676D02*
X65209524Y-105582914D01*
X65209524Y-105582914D02*
X65114286Y-105630533D01*
X97854819Y-99496666D02*
X97378628Y-99829999D01*
X97854819Y-100068094D02*
X96854819Y-100068094D01*
X96854819Y-100068094D02*
X96854819Y-99687142D01*
X96854819Y-99687142D02*
X96902438Y-99591904D01*
X96902438Y-99591904D02*
X96950057Y-99544285D01*
X96950057Y-99544285D02*
X97045295Y-99496666D01*
X97045295Y-99496666D02*
X97188152Y-99496666D01*
X97188152Y-99496666D02*
X97283390Y-99544285D01*
X97283390Y-99544285D02*
X97331009Y-99591904D01*
X97331009Y-99591904D02*
X97378628Y-99687142D01*
X97378628Y-99687142D02*
X97378628Y-100068094D01*
X96854819Y-98639523D02*
X96854819Y-98829999D01*
X96854819Y-98829999D02*
X96902438Y-98925237D01*
X96902438Y-98925237D02*
X96950057Y-98972856D01*
X96950057Y-98972856D02*
X97092914Y-99068094D01*
X97092914Y-99068094D02*
X97283390Y-99115713D01*
X97283390Y-99115713D02*
X97664342Y-99115713D01*
X97664342Y-99115713D02*
X97759580Y-99068094D01*
X97759580Y-99068094D02*
X97807200Y-99020475D01*
X97807200Y-99020475D02*
X97854819Y-98925237D01*
X97854819Y-98925237D02*
X97854819Y-98734761D01*
X97854819Y-98734761D02*
X97807200Y-98639523D01*
X97807200Y-98639523D02*
X97759580Y-98591904D01*
X97759580Y-98591904D02*
X97664342Y-98544285D01*
X97664342Y-98544285D02*
X97426247Y-98544285D01*
X97426247Y-98544285D02*
X97331009Y-98591904D01*
X97331009Y-98591904D02*
X97283390Y-98639523D01*
X97283390Y-98639523D02*
X97235771Y-98734761D01*
X97235771Y-98734761D02*
X97235771Y-98925237D01*
X97235771Y-98925237D02*
X97283390Y-99020475D01*
X97283390Y-99020475D02*
X97331009Y-99068094D01*
X97331009Y-99068094D02*
X97426247Y-99115713D01*
X66163333Y-113899580D02*
X66115714Y-113947200D01*
X66115714Y-113947200D02*
X65972857Y-113994819D01*
X65972857Y-113994819D02*
X65877619Y-113994819D01*
X65877619Y-113994819D02*
X65734762Y-113947200D01*
X65734762Y-113947200D02*
X65639524Y-113851961D01*
X65639524Y-113851961D02*
X65591905Y-113756723D01*
X65591905Y-113756723D02*
X65544286Y-113566247D01*
X65544286Y-113566247D02*
X65544286Y-113423390D01*
X65544286Y-113423390D02*
X65591905Y-113232914D01*
X65591905Y-113232914D02*
X65639524Y-113137676D01*
X65639524Y-113137676D02*
X65734762Y-113042438D01*
X65734762Y-113042438D02*
X65877619Y-112994819D01*
X65877619Y-112994819D02*
X65972857Y-112994819D01*
X65972857Y-112994819D02*
X66115714Y-113042438D01*
X66115714Y-113042438D02*
X66163333Y-113090057D01*
X66734762Y-113423390D02*
X66639524Y-113375771D01*
X66639524Y-113375771D02*
X66591905Y-113328152D01*
X66591905Y-113328152D02*
X66544286Y-113232914D01*
X66544286Y-113232914D02*
X66544286Y-113185295D01*
X66544286Y-113185295D02*
X66591905Y-113090057D01*
X66591905Y-113090057D02*
X66639524Y-113042438D01*
X66639524Y-113042438D02*
X66734762Y-112994819D01*
X66734762Y-112994819D02*
X66925238Y-112994819D01*
X66925238Y-112994819D02*
X67020476Y-113042438D01*
X67020476Y-113042438D02*
X67068095Y-113090057D01*
X67068095Y-113090057D02*
X67115714Y-113185295D01*
X67115714Y-113185295D02*
X67115714Y-113232914D01*
X67115714Y-113232914D02*
X67068095Y-113328152D01*
X67068095Y-113328152D02*
X67020476Y-113375771D01*
X67020476Y-113375771D02*
X66925238Y-113423390D01*
X66925238Y-113423390D02*
X66734762Y-113423390D01*
X66734762Y-113423390D02*
X66639524Y-113471009D01*
X66639524Y-113471009D02*
X66591905Y-113518628D01*
X66591905Y-113518628D02*
X66544286Y-113613866D01*
X66544286Y-113613866D02*
X66544286Y-113804342D01*
X66544286Y-113804342D02*
X66591905Y-113899580D01*
X66591905Y-113899580D02*
X66639524Y-113947200D01*
X66639524Y-113947200D02*
X66734762Y-113994819D01*
X66734762Y-113994819D02*
X66925238Y-113994819D01*
X66925238Y-113994819D02*
X67020476Y-113947200D01*
X67020476Y-113947200D02*
X67068095Y-113899580D01*
X67068095Y-113899580D02*
X67115714Y-113804342D01*
X67115714Y-113804342D02*
X67115714Y-113613866D01*
X67115714Y-113613866D02*
X67068095Y-113518628D01*
X67068095Y-113518628D02*
X67020476Y-113471009D01*
X67020476Y-113471009D02*
X66925238Y-113423390D01*
X60099819Y-119442857D02*
X59623628Y-119776190D01*
X60099819Y-120014285D02*
X59099819Y-120014285D01*
X59099819Y-120014285D02*
X59099819Y-119633333D01*
X59099819Y-119633333D02*
X59147438Y-119538095D01*
X59147438Y-119538095D02*
X59195057Y-119490476D01*
X59195057Y-119490476D02*
X59290295Y-119442857D01*
X59290295Y-119442857D02*
X59433152Y-119442857D01*
X59433152Y-119442857D02*
X59528390Y-119490476D01*
X59528390Y-119490476D02*
X59576009Y-119538095D01*
X59576009Y-119538095D02*
X59623628Y-119633333D01*
X59623628Y-119633333D02*
X59623628Y-120014285D01*
X60099819Y-118490476D02*
X60099819Y-119061904D01*
X60099819Y-118776190D02*
X59099819Y-118776190D01*
X59099819Y-118776190D02*
X59242676Y-118871428D01*
X59242676Y-118871428D02*
X59337914Y-118966666D01*
X59337914Y-118966666D02*
X59385533Y-119061904D01*
X60099819Y-117538095D02*
X60099819Y-118109523D01*
X60099819Y-117823809D02*
X59099819Y-117823809D01*
X59099819Y-117823809D02*
X59242676Y-117919047D01*
X59242676Y-117919047D02*
X59337914Y-118014285D01*
X59337914Y-118014285D02*
X59385533Y-118109523D01*
X107977200Y-112843332D02*
X108024819Y-112700475D01*
X108024819Y-112700475D02*
X108024819Y-112462380D01*
X108024819Y-112462380D02*
X107977200Y-112367142D01*
X107977200Y-112367142D02*
X107929580Y-112319523D01*
X107929580Y-112319523D02*
X107834342Y-112271904D01*
X107834342Y-112271904D02*
X107739104Y-112271904D01*
X107739104Y-112271904D02*
X107643866Y-112319523D01*
X107643866Y-112319523D02*
X107596247Y-112367142D01*
X107596247Y-112367142D02*
X107548628Y-112462380D01*
X107548628Y-112462380D02*
X107501009Y-112652856D01*
X107501009Y-112652856D02*
X107453390Y-112748094D01*
X107453390Y-112748094D02*
X107405771Y-112795713D01*
X107405771Y-112795713D02*
X107310533Y-112843332D01*
X107310533Y-112843332D02*
X107215295Y-112843332D01*
X107215295Y-112843332D02*
X107120057Y-112795713D01*
X107120057Y-112795713D02*
X107072438Y-112748094D01*
X107072438Y-112748094D02*
X107024819Y-112652856D01*
X107024819Y-112652856D02*
X107024819Y-112414761D01*
X107024819Y-112414761D02*
X107072438Y-112271904D01*
X107024819Y-111938570D02*
X108024819Y-111700475D01*
X108024819Y-111700475D02*
X107310533Y-111509999D01*
X107310533Y-111509999D02*
X108024819Y-111319523D01*
X108024819Y-111319523D02*
X107024819Y-111081428D01*
X108024819Y-110176666D02*
X108024819Y-110748094D01*
X108024819Y-110462380D02*
X107024819Y-110462380D01*
X107024819Y-110462380D02*
X107167676Y-110557618D01*
X107167676Y-110557618D02*
X107262914Y-110652856D01*
X107262914Y-110652856D02*
X107310533Y-110748094D01*
D11*
%TO.C,U2*%
X61630000Y-96990000D02*
X62890000Y-96990000D01*
X61630000Y-103000000D02*
X61630000Y-96990000D01*
X68450000Y-96990000D02*
X67190000Y-96990000D01*
X68450000Y-100750000D02*
X68450000Y-96990000D01*
%TO.C,J4*%
X92680000Y-96280000D02*
X98680000Y-96280000D01*
X92680000Y-97140000D02*
X92680000Y-96280000D01*
X92680000Y-98820000D02*
X98680000Y-98820000D01*
X92680000Y-99680000D02*
X92680000Y-98820000D01*
X98680000Y-95330000D02*
X98680000Y-103170000D01*
X98680000Y-97140000D02*
X92680000Y-97140000D01*
X98680000Y-99680000D02*
X92680000Y-99680000D01*
X98680000Y-103170000D02*
X101440000Y-103170000D01*
X101440000Y-95330000D02*
X98680000Y-95330000D01*
X101440000Y-97980000D02*
X98680000Y-97980000D01*
X101440000Y-100520000D02*
X98680000Y-100520000D01*
X101440000Y-103170000D02*
X101440000Y-95330000D01*
X101752642Y-96280000D02*
X101440000Y-96280000D01*
X101752642Y-97140000D02*
X101440000Y-97140000D01*
X101752642Y-98820000D02*
X101440000Y-98820000D01*
X101752642Y-99680000D02*
X101440000Y-99680000D01*
X101752642Y-101360000D02*
X101440000Y-101360000D01*
X101752642Y-102220000D02*
X101440000Y-102220000D01*
X104210000Y-101360000D02*
X103907358Y-101360000D01*
X104210000Y-102220000D02*
X103907358Y-102220000D01*
X104292642Y-96280000D02*
X103907358Y-96280000D01*
X104292642Y-97140000D02*
X103907358Y-97140000D01*
X104292642Y-98820000D02*
X103907358Y-98820000D01*
X104292642Y-99680000D02*
X103907358Y-99680000D01*
X106640000Y-101790000D02*
X106640000Y-103060000D01*
X106640000Y-103060000D02*
X105370000Y-103060000D01*
X98680000Y-102220000D02*
X92680000Y-102220000D01*
X92680000Y-101360000D01*
X98680000Y-101360000D01*
X98680000Y-102220000D01*
G36*
X98680000Y-102220000D02*
G01*
X92680000Y-102220000D01*
X92680000Y-101360000D01*
X98680000Y-101360000D01*
X98680000Y-102220000D01*
G37*
%TO.C,R2*%
X91950000Y-117810000D02*
X91950000Y-115810000D01*
X94090000Y-115810000D02*
X94090000Y-117810000D01*
%TO.C,R10*%
X71800000Y-106550000D02*
X73800000Y-106550000D01*
X73800000Y-108690000D02*
X71800000Y-108690000D01*
%TO.C,J3*%
X113430000Y-122500000D02*
X113400000Y-109710000D01*
X116060000Y-109710000D02*
X113400000Y-109710000D01*
X116060000Y-119930000D02*
X116060000Y-109710000D01*
X116060000Y-121200000D02*
X116060000Y-122530000D01*
X116060000Y-122530000D02*
X114730000Y-122530000D01*
D12*
%TO.C,U4*%
X114036200Y-95579000D02*
X114036200Y-106501000D01*
D13*
X114391800Y-95198000D02*
X114391800Y-106882000D01*
D12*
X116500000Y-95198000D02*
X114417200Y-95198000D01*
X119040000Y-95198000D02*
X116500000Y-95198000D01*
X121122800Y-95198000D02*
X119040000Y-95198000D01*
X121503800Y-106501000D02*
X121503800Y-95579000D01*
X114036200Y-95579000D02*
G75*
G02*
X114417200Y-95198000I380999J1D01*
G01*
X114417200Y-106882000D02*
G75*
G02*
X114036200Y-106501000I0J381000D01*
G01*
X119040000Y-95198000D02*
G75*
G02*
X116500000Y-95198000I-1270000J0D01*
G01*
X121122800Y-95198000D02*
G75*
G02*
X121503800Y-95579000I1J-380999D01*
G01*
X121503800Y-106501000D02*
G75*
G02*
X121122800Y-106882000I-381000J0D01*
G01*
D14*
X114036200Y-96214000D02*
X113904870Y-96214000D01*
X113904870Y-95700020D01*
X114036200Y-95700020D01*
X114036200Y-96214000D01*
G36*
X114036200Y-96214000D02*
G01*
X113904870Y-96214000D01*
X113904870Y-95700020D01*
X114036200Y-95700020D01*
X114036200Y-96214000D01*
G37*
X114036200Y-97484000D02*
X113908270Y-97484000D01*
X113908270Y-96975020D01*
X114036200Y-96975020D01*
X114036200Y-97484000D01*
G36*
X114036200Y-97484000D02*
G01*
X113908270Y-97484000D01*
X113908270Y-96975020D01*
X114036200Y-96975020D01*
X114036200Y-97484000D01*
G37*
X114036200Y-98754000D02*
X113902130Y-98754000D01*
X113902130Y-98240890D01*
X114036200Y-98240890D01*
X114036200Y-98754000D01*
G36*
X114036200Y-98754000D02*
G01*
X113902130Y-98754000D01*
X113902130Y-98240890D01*
X114036200Y-98240890D01*
X114036200Y-98754000D01*
G37*
X114036200Y-100024000D02*
X113903500Y-100024000D01*
X113903500Y-99513750D01*
X114036200Y-99513750D01*
X114036200Y-100024000D01*
G36*
X114036200Y-100024000D02*
G01*
X113903500Y-100024000D01*
X113903500Y-99513750D01*
X114036200Y-99513750D01*
X114036200Y-100024000D01*
G37*
X114036200Y-101294000D02*
X113906150Y-101294000D01*
X113906150Y-100785799D01*
X114036200Y-100785799D01*
X114036200Y-101294000D01*
G36*
X114036200Y-101294000D02*
G01*
X113906150Y-101294000D01*
X113906150Y-100785799D01*
X114036200Y-100785799D01*
X114036200Y-101294000D01*
G37*
X114036200Y-102564000D02*
X113902120Y-102564000D01*
X113902120Y-102057860D01*
X114036200Y-102057860D01*
X114036200Y-102564000D01*
G36*
X114036200Y-102564000D02*
G01*
X113902120Y-102564000D01*
X113902120Y-102057860D01*
X114036200Y-102057860D01*
X114036200Y-102564000D01*
G37*
X114036200Y-103834000D02*
X113908440Y-103834000D01*
X113908440Y-103326450D01*
X114036200Y-103326450D01*
X114036200Y-103834000D01*
G36*
X114036200Y-103834000D02*
G01*
X113908440Y-103834000D01*
X113908440Y-103326450D01*
X114036200Y-103326450D01*
X114036200Y-103834000D01*
G37*
X114036200Y-105104000D02*
X113901690Y-105104000D01*
X113901690Y-104602920D01*
X114036200Y-104602920D01*
X114036200Y-105104000D01*
G36*
X114036200Y-105104000D02*
G01*
X113901690Y-105104000D01*
X113901690Y-104602920D01*
X114036200Y-104602920D01*
X114036200Y-105104000D01*
G37*
X114036200Y-106374000D02*
X113905380Y-106374000D01*
X113905380Y-105870770D01*
X114036200Y-105870770D01*
X114036200Y-106374000D01*
G36*
X114036200Y-106374000D02*
G01*
X113905380Y-106374000D01*
X113905380Y-105870770D01*
X114036200Y-105870770D01*
X114036200Y-106374000D01*
G37*
X121630800Y-96214000D02*
X121509560Y-96214000D01*
X121509560Y-95697770D01*
X121630800Y-95697770D01*
X121630800Y-96214000D01*
G36*
X121630800Y-96214000D02*
G01*
X121509560Y-96214000D01*
X121509560Y-95697770D01*
X121630800Y-95697770D01*
X121630800Y-96214000D01*
G37*
X121630800Y-97484000D02*
X121510700Y-97484000D01*
X121510700Y-96968480D01*
X121630800Y-96968480D01*
X121630800Y-97484000D01*
G36*
X121630800Y-97484000D02*
G01*
X121510700Y-97484000D01*
X121510700Y-96968480D01*
X121630800Y-96968480D01*
X121630800Y-97484000D01*
G37*
X121630800Y-98754000D02*
X121504450Y-98754000D01*
X121504450Y-98245520D01*
X121630800Y-98245520D01*
X121630800Y-98754000D01*
G36*
X121630800Y-98754000D02*
G01*
X121504450Y-98754000D01*
X121504450Y-98245520D01*
X121630800Y-98245520D01*
X121630800Y-98754000D01*
G37*
X121630800Y-100024000D02*
X121504710Y-100024000D01*
X121504710Y-99515630D01*
X121630800Y-99515630D01*
X121630800Y-100024000D01*
G36*
X121630800Y-100024000D02*
G01*
X121504710Y-100024000D01*
X121504710Y-99515630D01*
X121630800Y-99515630D01*
X121630800Y-100024000D01*
G37*
X121630800Y-101294000D02*
X121510190Y-101294000D01*
X121510190Y-100785566D01*
X121630800Y-100785566D01*
X121630800Y-101294000D01*
G36*
X121630800Y-101294000D02*
G01*
X121510190Y-101294000D01*
X121510190Y-100785566D01*
X121630800Y-100785566D01*
X121630800Y-101294000D01*
G37*
X121630800Y-102564000D02*
X121506560Y-102564000D01*
X121506560Y-102056750D01*
X121630800Y-102056750D01*
X121630800Y-102564000D01*
G36*
X121630800Y-102564000D02*
G01*
X121506560Y-102564000D01*
X121506560Y-102056750D01*
X121630800Y-102056750D01*
X121630800Y-102564000D01*
G37*
X121630800Y-103834000D02*
X121506090Y-103834000D01*
X121506090Y-103327400D01*
X121630800Y-103327400D01*
X121630800Y-103834000D01*
G36*
X121630800Y-103834000D02*
G01*
X121506090Y-103834000D01*
X121506090Y-103327400D01*
X121630800Y-103327400D01*
X121630800Y-103834000D01*
G37*
X121630800Y-105104000D02*
X121510930Y-105104000D01*
X121510930Y-104602790D01*
X121630800Y-104602790D01*
X121630800Y-105104000D01*
G36*
X121630800Y-105104000D02*
G01*
X121510930Y-105104000D01*
X121510930Y-104602790D01*
X121630800Y-104602790D01*
X121630800Y-105104000D01*
G37*
X121630800Y-106374000D02*
X121510080Y-106374000D01*
X121510080Y-105874120D01*
X121630800Y-105874120D01*
X121630800Y-106374000D01*
G36*
X121630800Y-106374000D02*
G01*
X121510080Y-106374000D01*
X121510080Y-105874120D01*
X121630800Y-105874120D01*
X121630800Y-106374000D01*
G37*
D11*
%TO.C,C7*%
X64380000Y-119010000D02*
X66380000Y-119010000D01*
X66380000Y-121150000D02*
X64380000Y-121150000D01*
%TO.C,D2*%
X59560000Y-112460000D02*
X59560000Y-110260000D01*
X61510000Y-112460000D02*
X61510000Y-110260000D01*
%TO.C,J7*%
X81570000Y-115180000D02*
X81570000Y-122800000D01*
X81570000Y-115180000D02*
X84110000Y-115180000D01*
X81570000Y-122800000D02*
X84110000Y-122800000D01*
X84110000Y-115180000D02*
X84110000Y-122800000D01*
%TO.C,C4*%
X63920000Y-103510000D02*
X65920000Y-103510000D01*
X65920000Y-105650000D02*
X63920000Y-105650000D01*
%TO.C,R9*%
X71800000Y-109810000D02*
X73800000Y-109810000D01*
X73800000Y-111950000D02*
X71800000Y-111950000D01*
%TO.C,C9*%
X56160000Y-119060000D02*
X56160000Y-124660000D01*
X56160000Y-124660000D02*
X58660000Y-124660000D01*
X57160000Y-118060000D02*
X56160000Y-119060000D01*
X58660000Y-118060000D02*
X57160000Y-118060000D01*
X60260000Y-118060000D02*
X61760000Y-118060000D01*
X61760000Y-118060000D02*
X62760000Y-119060000D01*
X62760000Y-117560000D02*
X62760000Y-118360000D01*
X62760000Y-119060000D02*
X62760000Y-124660000D01*
X62760000Y-124660000D02*
X60260000Y-124660000D01*
X63160000Y-117960000D02*
X62360000Y-117960000D01*
%TO.C,J5*%
X72870000Y-114060000D02*
X72870000Y-119140000D01*
X72870000Y-114060000D02*
X75410000Y-114060000D01*
X72870000Y-119140000D02*
X75410000Y-119140000D01*
X75410000Y-114060000D02*
X75410000Y-119140000D01*
%TO.C,R4*%
X71800000Y-100270000D02*
X73800000Y-100270000D01*
X73800000Y-102410000D02*
X71800000Y-102410000D01*
%TO.C,D1*%
X92100000Y-123577500D02*
X92100000Y-121377500D01*
X94050000Y-123577500D02*
X94050000Y-121377500D01*
%TO.C,C3*%
X63930000Y-109930000D02*
X65930000Y-109930000D01*
X65930000Y-112070000D02*
X63930000Y-112070000D01*
D15*
%TO.C,J1*%
X69790000Y-126430000D02*
X69790000Y-127580000D01*
X69790000Y-127580000D02*
X78730000Y-127580000D01*
X78730000Y-127580000D02*
X78730000Y-126430000D01*
D11*
%TO.C,R7*%
X102560000Y-103610000D02*
X104560000Y-103610000D01*
X104560000Y-105750000D02*
X102560000Y-105750000D01*
%TO.C,R8*%
X89110000Y-117670000D02*
X89110000Y-115670000D01*
X91250000Y-115670000D02*
X91250000Y-117670000D01*
%TO.C,C2*%
X69112880Y-98180337D02*
X69112880Y-96180337D01*
X71252880Y-96180337D02*
X71252880Y-98180337D01*
%TO.C,SW2*%
X100420000Y-125200000D02*
X100420000Y-118900000D01*
X102570000Y-118900000D02*
X104570000Y-118900000D01*
X104570000Y-125200000D02*
X102570000Y-125200000D01*
X106720000Y-118900000D02*
X106720000Y-125200000D01*
%TO.C,C5*%
X71800000Y-103630000D02*
X73800000Y-103630000D01*
X73800000Y-105770000D02*
X71800000Y-105770000D01*
%TO.C,U1*%
X77990000Y-86640000D02*
X77990000Y-92800000D01*
X77990000Y-86640000D02*
X96230000Y-86640000D01*
X77990000Y-111600000D02*
X77990000Y-112380000D01*
X77990000Y-112380000D02*
X78990000Y-112380000D01*
X96230000Y-86640000D02*
X96230000Y-93055000D01*
X96230000Y-111600000D02*
X96230000Y-112380000D01*
X96230000Y-112380000D02*
X95230000Y-112380000D01*
X77985000Y-93525000D02*
X77485000Y-93525000D01*
X77985000Y-93025000D01*
X77985000Y-93525000D01*
G36*
X77985000Y-93525000D02*
G01*
X77485000Y-93525000D01*
X77985000Y-93025000D01*
X77985000Y-93525000D01*
G37*
%TO.C,J6*%
X68950000Y-114050000D02*
X68950000Y-119130000D01*
X68950000Y-114050000D02*
X71490000Y-114050000D01*
X68950000Y-119130000D02*
X71490000Y-119130000D01*
X71490000Y-114050000D02*
X71490000Y-119130000D01*
%TO.C,C1*%
X71922880Y-98190337D02*
X71922880Y-96190337D01*
X74062880Y-96190337D02*
X74062880Y-98190337D01*
%TO.C,J2*%
X120140000Y-109720000D02*
X121470000Y-109720000D01*
X120140000Y-111050000D02*
X120140000Y-109720000D01*
X120140000Y-112320000D02*
X120140000Y-122540000D01*
X120140000Y-122540000D02*
X122800000Y-122540000D01*
X122770000Y-109750000D02*
X122800000Y-122540000D01*
%TO.C,R3*%
X59430000Y-106640000D02*
X59430000Y-104640000D01*
X61570000Y-104640000D02*
X61570000Y-106640000D01*
%TO.C,R1*%
X63900000Y-106670000D02*
X65900000Y-106670000D01*
X65900000Y-108810000D02*
X63900000Y-108810000D01*
%TO.C,R6*%
X98180000Y-100330000D02*
X98180000Y-98330000D01*
X100320000Y-98330000D02*
X100320000Y-100330000D01*
%TO.C,C8*%
X64430000Y-114270000D02*
X66430000Y-114270000D01*
X66430000Y-116410000D02*
X64430000Y-116410000D01*
%TO.C,R11*%
X77300000Y-116830000D02*
X77300000Y-114830000D01*
X79440000Y-114830000D02*
X79440000Y-116830000D01*
%TO.C,SW1*%
X100420000Y-114660000D02*
X100420000Y-108360000D01*
X102570000Y-108360000D02*
X104570000Y-108360000D01*
X104570000Y-114660000D02*
X102570000Y-114660000D01*
X106720000Y-108360000D02*
X106720000Y-114660000D01*
%TD*%
M02*
